<svg width="68" height="68" viewBox="0 0 68 68" fill="none" xmlns="http://www.w3.org/2000/svg">
<g clip-path="url(#clip0_4_309)">
<path fill-rule="evenodd" clip-rule="evenodd" d="M51 68H17C12.4914 67.9998 8.16748 66.2087 4.9794 63.0206C1.79133 59.8325 0.000197239 55.5086 0 51L0 17C0.000197239 12.4914 1.79133 8.16748 4.9794 4.9794C8.16748 1.79133 12.4914 0.000197239 17 0L51 0C55.5087 0 59.8327 1.79107 63.0208 4.97919C66.2089 8.1673 68 12.4913 68 17V51C68 55.5087 66.2089 59.8327 63.0208 63.0208C59.8327 66.2089 55.5087 68 51 68Z" fill="#F6F6F6"/>
<path d="M55.25 34.4983C55.25 33.6706 55.2118 32.8397 55.1342 32.0142C55.0835 31.4893 54.839 31.002 54.4485 30.6476C54.0579 30.2932 53.5493 30.0971 53.0219 30.0974C49.2235 30.0932 40.5716 30.0932 36.5532 30.0932C35.9896 30.0932 35.4491 30.3171 35.0506 30.7156C34.6521 31.1141 34.4282 31.6546 34.4282 32.2182V36.3162C34.4284 36.8798 34.6523 37.4202 35.0508 37.8186C35.4493 38.2171 35.9897 38.4411 36.5532 38.4412H46.1369C45.8972 39.775 45.3897 41.0464 44.645 42.1786C43.9003 43.3108 42.9339 44.2804 41.8041 45.0287V45.0309C41.804 45.7419 41.944 46.446 42.2161 47.103C42.4882 47.7599 42.8871 48.3568 43.3898 48.8596C43.8926 49.3624 44.4895 49.7612 45.1465 50.0333C45.8034 50.3054 46.5075 50.4454 47.2186 50.4454H48.79C52.8923 46.6703 55.25 41.0943 55.25 34.4983Z" fill="#1E78FF"/>
<path d="M34.4282 55.6792C39.7096 55.8278 44.8488 53.9559 48.7974 50.4454L41.8126 45.0287C40.1303 46.1054 38.2249 46.7847 36.2409 47.015C34.257 47.2453 32.2466 47.0207 30.3624 46.3581C28.4782 45.6955 26.7697 44.6123 25.3667 43.1909C23.9636 41.7694 22.9027 40.047 22.2647 38.1544H20.638C19.1575 38.1545 17.7377 38.7427 16.6908 39.7896C15.644 40.8364 15.0558 42.2563 15.0556 43.7367V43.7389C16.8613 47.3287 19.6289 50.3462 23.0497 52.4546C26.4705 54.563 30.4098 55.6794 34.4282 55.6792Z" fill="#00B450"/>
<path d="M22.2573 38.1544C21.3488 35.4626 21.3488 32.547 22.2573 29.8552V29.8531C22.2571 28.3726 21.6689 26.9528 20.6221 25.9059C19.5752 24.859 18.1554 24.2708 16.6749 24.2707H15.0556C13.5397 27.2916 12.7503 30.6248 12.7503 34.0048C12.7503 37.3847 13.5397 40.718 15.0556 43.7389L22.2573 38.1544Z" fill="#FFB400"/>
<path d="M34.4282 20.9015C36.897 20.8626 39.3158 21.5991 41.344 23.0074C41.7465 23.3005 42.2405 23.4401 42.7369 23.4012C43.2333 23.3622 43.6994 23.1472 44.0513 22.7949C45.0234 21.8726 46.3016 20.5944 47.3089 19.5872C47.5225 19.3737 47.6882 19.1171 47.7948 18.8345C47.9015 18.5519 47.9467 18.2498 47.9273 17.9484C47.908 17.6469 47.8247 17.3531 47.6829 17.0864C47.5411 16.8197 47.344 16.5863 47.1049 16.4018C43.4327 13.705 38.984 12.2735 34.4282 12.3229C30.4088 12.3224 26.4685 13.4394 23.0475 15.5493C19.6264 17.6592 16.8594 20.6788 15.0556 24.2707L22.2573 29.8552C23.0956 27.2779 24.7205 25.0281 26.9036 23.4221C29.0867 21.816 31.7182 20.9346 34.4282 20.9015Z" fill="#E60014"/>
</g>
<defs>
<clipPath id="clip0_4_309">
<rect width="68" height="68" fill="white"/>
</clipPath>
</defs>
</svg>
