<svg width="104" height="154" viewBox="0 0 104 154" fill="none" xmlns="http://www.w3.org/2000/svg">
<path d="M14.2886 132.251V137.451V137.457V137.464H14.2895C14.2928 137.812 14.4651 138.157 14.8086 138.355L40.9802 153.465C42.2149 154.178 43.7362 154.178 44.971 153.465L89.1094 127.982C89.4565 127.782 89.6297 127.431 89.6297 127.081V121.894L14.2886 132.251Z" fill="url(#paint0_linear_77_850)"/>
<path d="M14.8086 133.169L40.9802 148.279C42.2149 148.992 43.7363 148.992 44.971 148.279L89.1094 122.795C89.8033 122.395 89.8033 121.393 89.1094 120.992L62.9378 105.882C61.7031 105.17 60.1818 105.17 58.9471 105.882L14.8086 131.366C14.1147 131.766 14.1147 132.768 14.8086 133.169Z" fill="url(#paint1_linear_77_850)"/>
<path d="M82.244 48.7358C80.6225 48.7361 79.0458 47.8945 78.1769 46.3894C76.8814 44.1455 77.6502 41.2764 79.894 39.9809L85.6366 36.6654C90.7928 33.6886 93.9959 28.1407 93.9959 22.1867V10.9983L84.5853 16.4316C82.3415 17.727 79.4723 16.9582 78.1769 14.7144C76.8814 12.4706 77.6502 9.60143 79.894 8.30597L90.2908 2.30328C93.0225 0.726286 96.2842 0.725985 99.0162 2.30328C101.748 3.88028 103.379 6.70521 103.379 9.8595V22.1867C103.379 31.4818 98.3779 40.1434 90.3281 44.791L84.5856 48.1065C83.8466 48.533 83.0396 48.7358 82.244 48.7358Z" fill="#FFC538"/>
<path d="M19.7817 101.757V131.109V131.114V131.12H19.7826C19.7856 131.417 19.9327 131.712 20.226 131.881L42.5812 144.788C43.6358 145.397 44.9352 145.397 45.99 144.788L83.692 123.021C83.9883 122.85 84.1366 122.55 84.1366 122.251V92.9097L19.7817 101.757Z" fill="url(#paint2_linear_77_850)"/>
<path d="M20.226 102.54L42.5813 115.447C43.6358 116.056 44.9352 116.056 45.99 115.447L83.692 93.6797C84.2849 93.3374 84.2849 92.482 83.692 92.1397L61.3368 79.2329C60.2822 78.6238 58.9826 78.6238 57.928 79.2329L20.226 101C19.6335 101.342 19.6335 102.198 20.226 102.54Z" fill="url(#paint3_linear_77_850)"/>
<path d="M58.5816 84.218L42.8096 85.6269V96.2225H42.8099C42.7978 97.2789 43.4286 98.2889 44.7327 99.0418C47.5842 100.688 52.5654 100.482 55.858 98.5806C57.7066 97.5135 58.6297 96.1389 58.5798 94.8471L58.5819 94.8467L58.5816 84.218Z" fill="url(#paint4_linear_77_850)"/>
<path d="M11.5332 27.4459V51.5138C11.5332 73.1674 29.0868 90.7209 50.7403 90.7209C72.3939 90.7209 89.9475 73.1674 89.9475 51.5138V19.2165L11.5332 27.4459Z" fill="url(#paint5_linear_77_850)"/>
<path d="M76.3909 37.4998C92.7786 28.0381 94.5587 13.7258 80.3663 5.5319C66.174 -2.66229 41.3839 -1.63452 24.9961 7.82686C8.60835 17.2885 6.82833 31.6009 21.0207 39.7948C35.213 47.989 60.0031 46.9612 76.3909 37.4998Z" fill="url(#paint6_linear_77_850)"/>
<path d="M71.3449 34.5865C84.5149 26.9827 85.9451 15.4805 74.5398 8.89584C63.1345 2.31114 43.212 3.13678 30.0423 10.7402C16.8723 18.344 15.442 29.8458 26.8474 36.4309C38.2527 43.0159 58.1749 42.1899 71.3449 34.5865Z" fill="url(#paint7_linear_77_850)"/>
<path d="M52.1332 118.931L77.2436 104.433V121.269L52.1332 135.767V118.931Z" fill="#C5BAEB"/>
<path d="M13.8137 86.8514C11.4414 86.8514 9.06915 86.227 6.90684 84.9787C2.5819 82.4817 0 78.0096 0 73.0155V60.6188C0 56.8034 2.05283 53.2475 5.35721 51.3397L16.0295 45.1782C18.2737 43.8824 21.1425 44.6515 22.438 46.8953C23.7334 49.1392 22.9646 52.0083 20.7208 53.3038L10.0488 59.4653C9.63793 59.7023 9.38287 60.1444 9.38287 60.6188V73.0155C9.38287 75.3246 10.9322 76.4684 11.5984 76.8528C12.265 77.2372 14.0299 78.0069 16.0295 76.8528L20.4892 74.2781C22.7327 72.983 25.6022 73.7518 26.8977 75.9956C28.1931 78.2394 27.4243 81.1086 25.1802 82.4041L20.7208 84.9787C18.5582 86.2273 16.1859 86.8514 13.8137 86.8514Z" fill="#FFC538"/>
<path d="M76.0501 121.959L77.2436 119.678V104.433L76.9004 104.631L64.2733 128.758L76.0501 121.959Z" fill="url(#paint8_linear_77_850)"/>
<path d="M71.8229 107.563L54.3415 117.656L52.1332 121.876V135.767L59.1955 131.69L71.8229 107.563Z" fill="url(#paint9_linear_77_850)"/>
<defs>
<linearGradient id="paint0_linear_77_850" x1="38.8702" y1="137.947" x2="50.4073" y2="137.947" gradientUnits="userSpaceOnUse">
<stop stop-color="#43386B"/>
<stop offset="1" stop-color="#594A8E"/>
</linearGradient>
<linearGradient id="paint1_linear_77_850" x1="28.9989" y1="140.337" x2="100.791" y2="98.8875" gradientUnits="userSpaceOnUse">
<stop stop-color="#7662BD"/>
<stop offset="1" stop-color="#A996EB"/>
</linearGradient>
<linearGradient id="paint2_linear_77_850" x1="40.7787" y1="119.077" x2="50.6338" y2="119.077" gradientUnits="userSpaceOnUse">
<stop stop-color="#43386B"/>
<stop offset="1" stop-color="#594A8E"/>
</linearGradient>
<linearGradient id="paint3_linear_77_850" x1="32.3469" y1="108.663" x2="93.6701" y2="73.2579" gradientUnits="userSpaceOnUse">
<stop stop-color="#7662BD"/>
<stop offset="1" stop-color="#A996EB"/>
</linearGradient>
<linearGradient id="paint4_linear_77_850" x1="42.8096" y1="92.1854" x2="58.5816" y2="92.1854" gradientUnits="userSpaceOnUse">
<stop stop-color="#E37A34"/>
<stop offset="1" stop-color="#FFC538"/>
</linearGradient>
<linearGradient id="paint5_linear_77_850" x1="-13.8702" y1="88.1047" x2="77.8407" y2="35.1555" gradientUnits="userSpaceOnUse">
<stop stop-color="#E37A34"/>
<stop offset="0.0221" stop-color="#E37C34"/>
<stop offset="0.6897" stop-color="#F1C43D"/>
<stop offset="1" stop-color="#F7E041"/>
</linearGradient>
<linearGradient id="paint6_linear_77_850" x1="24.9962" y1="7.85512" x2="50.6781" y2="52.3644" gradientUnits="userSpaceOnUse">
<stop stop-color="#F7E041"/>
<stop offset="1" stop-color="#FCF3B3"/>
</linearGradient>
<linearGradient id="paint7_linear_77_850" x1="74.3079" y1="9.02939" x2="27.3175" y2="36.1592" gradientUnits="userSpaceOnUse">
<stop stop-color="#E37A34"/>
<stop offset="1" stop-color="#FFC538"/>
</linearGradient>
<linearGradient id="paint8_linear_77_850" x1="83.8415" y1="124.149" x2="68.7552" y2="115.439" gradientUnits="userSpaceOnUse">
<stop stop-color="white"/>
<stop offset="1" stop-color="white" stop-opacity="0"/>
</linearGradient>
<linearGradient id="paint9_linear_77_850" x1="78.8762" y1="131.421" x2="53.8801" y2="116.99" gradientUnits="userSpaceOnUse">
<stop stop-color="white"/>
<stop offset="1" stop-color="white" stop-opacity="0"/>
</linearGradient>
</defs>
</svg>
