<svg width="17" height="16" viewBox="0 0 17 16" fill="none" xmlns="http://www.w3.org/2000/svg">
<path fill-rule="evenodd" clip-rule="evenodd" d="M12.1191 3.61906C12.1191 5.61781 10.4987 7.23812 8.49999 7.23812C6.50124 7.23812 4.88093 5.61781 4.88093 3.61906C4.88093 1.62031 6.50124 0 8.49999 0C10.4987 0 12.1191 1.62031 12.1191 3.61906ZM10.9127 3.61906C10.9127 4.95156 9.8325 6.03177 8.49999 6.03177C7.16749 6.03177 6.08729 4.95156 6.08729 3.61906C6.08729 2.28656 7.16749 1.20635 8.49999 1.20635C9.8325 1.20635 10.9127 2.28656 10.9127 3.61906Z" fill="#E701A6"/>
<path d="M8.5 9.04765C4.5948 9.04765 1.26746 11.3569 0 14.5921C0.308763 14.8987 0.634022 15.1887 0.974329 15.4607C1.91815 12.4904 4.87895 10.254 8.5 10.254C12.121 10.254 15.0819 12.4904 16.0257 15.4607C16.366 15.1887 16.6912 14.8987 17 14.5921C15.7325 11.3569 12.4052 9.04765 8.5 9.04765Z" fill="#E701A6"/>
</svg>
