<svg width="40" height="40" viewBox="0 0 40 40" fill="none" xmlns="http://www.w3.org/2000/svg">
<path d="M31.25 7.5L28.75 10M28.75 10L32.5 13.75L28.125 18.125L24.375 14.375M28.75 10L24.375 14.375M19.2375 19.5125C19.8829 20.1493 20.396 20.9075 20.7472 21.7435C21.0984 22.5794 21.2807 23.4766 21.2838 24.3833C21.2868 25.29 21.1105 26.1884 20.7649 27.0266C20.4193 27.8649 19.9113 28.6265 19.2702 29.2677C18.629 29.9088 17.8674 30.4168 17.0291 30.7624C16.1909 31.108 15.2925 31.2843 14.3858 31.2813C13.4791 31.2782 12.5819 31.0959 11.746 30.7447C10.91 30.3935 10.1518 29.8804 9.515 29.235C8.26266 27.9384 7.5697 26.2017 7.58537 24.3991C7.60103 22.5965 8.32407 20.8722 9.59875 19.5975C10.8734 18.3228 12.5978 17.5998 14.4004 17.5841C16.203 17.5685 17.9396 18.2614 19.2362 19.5138L19.2375 19.5125ZM19.2375 19.5125L24.375 14.375" stroke="black" stroke-width="2" stroke-linecap="round" stroke-linejoin="round"/>
</svg>
