<svg width="24" height="24" viewBox="0 0 24 24" fill="none" xmlns="http://www.w3.org/2000/svg">
<g clip-path="url(#clip0_10_286)">
<path d="M11.9786 0C17.383 0 22.4971 3.90623 23.6974 9.2254C23.9027 10.1352 24 11.0677 24 12.0001C24 13.643 23.7106 15.1821 23.1321 16.6179C21.3541 21.0302 16.699 23.9999 11.9786 23.9999C6.14539 23.9999 1.047 19.5275 0.141187 13.7909C0.0476718 13.1988 0 12.5995 0 12.0001C0 6.21172 4.3296 1.10944 10.0316 0.160734C10.6747 0.0537186 11.3266 0 11.9786 0ZM12.0214 2.16426C6.73278 2.16426 2.1644 6.70569 2.16436 12C2.16436 17.2788 6.77572 21.7927 12.0214 21.7927C17.3713 21.7927 21.8356 17.3348 21.8356 12C21.8356 6.63205 17.3931 2.16431 12.0214 2.16426ZM11.8713 10.0072L10.2642 10.843C10.0927 10.486 9.88184 10.2358 9.63209 10.0929C9.38197 9.95028 9.14993 9.8786 8.93562 9.8786C7.86425 9.8786 7.32852 10.5858 7.32852 12.0001C7.32852 12.6428 7.46417 13.1572 7.73562 13.5428C8.00689 13.9286 8.40697 14.1216 8.93562 14.1216C9.63551 14.1216 10.1284 13.7786 10.4143 13.0928L11.8928 13.8429C11.5785 14.4289 11.1428 14.8895 10.5855 15.225C10.0285 15.5609 9.41412 15.7287 8.74278 15.7287C7.67141 15.7287 6.80685 15.4001 6.15003 14.743C5.4928 14.086 5.16411 13.1716 5.16411 12.0002C5.16411 10.8574 5.49641 9.95037 6.16068 9.27861C6.82499 8.60726 7.66391 8.27159 8.67833 8.27159C10.1642 8.2715 11.2286 8.85003 11.8713 10.0072ZM18.7927 10.0072L17.2072 10.843C17.0357 10.486 16.8248 10.2358 16.5748 10.0929C16.3247 9.95028 16.0854 9.8786 15.857 9.8786C14.7856 9.8786 14.2499 10.5858 14.2499 12.0001C14.2499 12.6428 14.3855 13.1572 14.657 13.5428C14.9283 13.9286 15.3284 14.1216 15.857 14.1216C16.5569 14.1216 17.0497 13.7786 17.3355 13.0928L18.8356 13.8429C18.5067 14.4289 18.0642 14.8895 17.507 15.225C16.95 15.5609 16.3426 15.7287 15.6856 15.7287C14.5998 15.7287 13.7319 15.4001 13.0821 14.743C12.4319 14.086 12.1071 13.1716 12.1071 12.0002C12.1071 10.8574 12.4392 9.95037 13.1035 9.27861C13.7678 8.60726 14.6069 8.27159 15.6214 8.27159C17.107 8.2715 18.1641 8.85003 18.7927 10.0072Z" fill="white" fill-opacity="0.5"/>
</g>
<defs>
<clipPath id="clip0_10_286">
<rect width="24" height="24" fill="white"/>
</clipPath>
</defs>
</svg>
