<svg width="40" height="40" viewBox="0 0 40 40" fill="none" xmlns="http://www.w3.org/2000/svg">
<path d="M27.5 15C29.5711 15 31.25 13.3211 31.25 11.25C31.25 9.17893 29.5711 7.5 27.5 7.5C25.4289 7.5 23.75 9.17893 23.75 11.25C23.75 13.3211 25.4289 15 27.5 15Z" stroke="black" stroke-width="2" stroke-linecap="round" stroke-linejoin="round"/>
<path d="M12.5 23.75C14.5711 23.75 16.25 22.0711 16.25 20C16.25 17.9289 14.5711 16.25 12.5 16.25C10.4289 16.25 8.75 17.9289 8.75 20C8.75 22.0711 10.4289 23.75 12.5 23.75Z" stroke="black" stroke-width="2" stroke-linecap="round" stroke-linejoin="round"/>
<path d="M27.5 32.5C29.5711 32.5 31.25 30.8211 31.25 28.75C31.25 26.6789 29.5711 25 27.5 25C25.4289 25 23.75 26.6789 23.75 28.75C23.75 30.8211 25.4289 32.5 27.5 32.5Z" stroke="black" stroke-width="2" stroke-linecap="round" stroke-linejoin="round"/>
<path d="M15.7375 21.8875L24.275 26.8625" stroke="black" stroke-width="2" stroke-linecap="round" stroke-linejoin="round"/>
<path d="M24.2625 13.1375L15.7375 18.1125" stroke="black" stroke-width="2" stroke-linecap="round" stroke-linejoin="round"/>
</svg>
