<svg width="40" height="40" viewBox="0 0 40 40" fill="none" xmlns="http://www.w3.org/2000/svg">
<path d="M26.25 31.25V28.75C26.25 27.4239 25.7232 26.1521 24.7855 25.2145C23.8479 24.2768 22.5761 23.75 21.25 23.75H11.25C9.92392 23.75 8.65215 24.2768 7.71447 25.2145C6.77678 26.1521 6.25 27.4239 6.25 28.75V31.25" stroke="black" stroke-width="2" stroke-linecap="round" stroke-linejoin="round"/>
<path d="M16.25 18.75C19.0114 18.75 21.25 16.5114 21.25 13.75C21.25 10.9886 19.0114 8.75 16.25 8.75C13.4886 8.75 11.25 10.9886 11.25 13.75C11.25 16.5114 13.4886 18.75 16.25 18.75Z" stroke="black" stroke-width="2" stroke-linecap="round" stroke-linejoin="round"/>
<path d="M33.75 31.2501V28.7501C33.7492 27.6423 33.3804 26.5661 32.7017 25.6905C32.023 24.8149 31.0727 24.1896 30 23.9126" stroke="black" stroke-width="2" stroke-linecap="round" stroke-linejoin="round"/>
<path d="M25 8.91248C26.0755 9.18785 27.0288 9.81335 27.7095 10.6904C28.3903 11.5674 28.7598 12.646 28.7598 13.7562C28.7598 14.8664 28.3903 15.9451 27.7095 16.8221C27.0288 17.6991 26.0755 18.3246 25 18.6" stroke="black" stroke-width="2" stroke-linecap="round" stroke-linejoin="round"/>
</svg>
