<svg width="40" height="40" viewBox="0 0 40 40" fill="none" xmlns="http://www.w3.org/2000/svg">
<g clip-path="url(#clip0_101_4012)">
<path d="M31.25 20.9875C31.0534 23.1153 30.2548 25.143 28.9478 26.8335C27.6408 28.524 25.8794 29.8072 23.8696 30.5332C21.8599 31.2591 19.685 31.3977 17.5994 30.9326C15.5138 30.4676 13.6037 29.4182 12.0928 27.9072C10.5818 26.3963 9.53242 24.4862 9.06738 22.4006C8.60234 20.315 8.74089 18.1401 9.46682 16.1304C10.1928 14.1206 11.476 12.3592 13.1665 11.0522C14.857 9.74517 16.8847 8.94663 19.0125 8.75C17.7668 10.4353 17.1673 12.5118 17.3232 14.6018C17.479 16.6917 18.3798 18.6563 19.8618 20.1382C21.3437 21.6202 23.3083 22.521 25.3982 22.6768C27.4882 22.8327 29.5647 22.2332 31.25 20.9875Z" stroke="black" stroke-width="2" stroke-linecap="round" stroke-linejoin="round"/>
</g>
<defs>
<clipPath id="clip0_101_4012">
<rect width="30" height="30" fill="white" transform="translate(5 5)"/>
</clipPath>
</defs>
</svg>
