<svg width="69" height="70" viewBox="0 0 69 70" fill="none" xmlns="http://www.w3.org/2000/svg">
<path d="M34.5 70C53.5538 70 69 54.33 69 35C69 15.67 53.5538 0 34.5 0C15.4462 0 0 15.67 0 35C0 54.33 15.4462 70 34.5 70Z" fill="#D62D3B"/>
<g clip-path="url(#clip0_10_290)">
<path d="M22.0257 39.7034L19.374 37.0518C19.1268 36.8066 18.9336 36.5125 18.8067 36.1883C18.6797 35.8642 18.6219 35.5171 18.6369 35.1693C18.6519 34.8215 18.7393 34.4806 18.8936 34.1686C19.048 33.8565 19.2658 33.5801 19.5331 33.3571C22.5485 30.9328 26.0905 29.2496 29.8745 28.4427C33.3672 27.6642 36.9885 27.6642 40.4811 28.4427C44.2808 29.2548 47.8357 30.9505 50.8579 33.3925C51.1244 33.6148 51.3417 33.8902 51.496 34.2011C51.6502 34.512 51.738 34.8517 51.7538 35.1984C51.7696 35.5451 51.7131 35.8913 51.5877 36.215C51.4624 36.5386 51.2711 36.8326 51.0259 37.0783L48.3742 39.7299C47.9495 40.1631 47.3817 40.4271 46.7768 40.4726C46.1718 40.5181 45.571 40.3421 45.0862 39.9774C44.1257 39.2407 43.0849 38.6151 41.9837 38.1124C41.5485 37.915 41.1789 37.5969 40.9188 37.1959C40.6588 36.7948 40.5192 36.3276 40.5165 35.8497L40.5165 33.6046C37.0454 32.65 33.381 32.65 29.9099 33.6046V35.8497C29.9072 36.3276 29.7676 36.7948 29.5075 37.1959C29.2475 37.5969 28.8779 37.915 28.4426 38.1124C27.3415 38.6151 26.3007 39.2407 25.3402 39.9774C24.8503 40.3462 24.2419 40.5221 23.6308 40.4715C23.0196 40.421 22.4484 40.1476 22.0257 39.7034Z" stroke="white" stroke-width="2" stroke-linecap="round" stroke-linejoin="round"/>
</g>
<defs>
<clipPath id="clip0_10_290">
<rect width="30" height="30" fill="white" transform="translate(56.4264 35.2133) rotate(135)"/>
</clipPath>
</defs>
</svg>
