<svg width="368" height="261" viewBox="0 0 368 261" fill="none" xmlns="http://www.w3.org/2000/svg">
<path d="M61.4148 166.003C50.2795 176.902 48.3911 193.768 50.7516 208.541C50.8168 208.875 51.3377 208.786 51.3377 208.468C51.3377 205.106 51.2319 201.777 51.24 198.456C51.3051 198.302 51.354 198.155 51.4191 198.009C54.325 195.892 57.0193 193.515 58.6472 190.259C60.5113 186.597 61.2438 182.478 62.6602 178.652C62.7985 178.286 62.4078 178.392 62.1474 178.587C55.375 183.577 53.1936 188.957 51.2726 196.136C51.3109 192.379 51.7061 188.635 52.4529 184.952C53.918 178.139 56.8077 171.375 61.7078 166.32C61.7499 166.281 61.7748 166.227 61.7771 166.17C61.7794 166.113 61.7589 166.057 61.72 166.015C61.6812 165.973 61.6272 165.948 61.5699 165.946C61.5127 165.943 61.4569 165.964 61.4148 166.003Z" fill="#A6A6A6"/>
<path d="M63.5311 167.273C65.4439 167.338 66.6486 170.398 68.1382 171.294C68.2951 171.421 68.4769 171.514 68.6721 171.566C68.8672 171.619 69.0711 171.63 69.2707 171.598C69.4703 171.567 69.661 171.494 69.8305 171.384C70 171.274 70.1445 171.129 70.2545 170.96C71.736 168.892 69.701 166.345 67.8126 164.92C69.1801 165.482 70.3115 166.467 71.7848 166.752C71.9731 166.812 72.1719 166.831 72.3681 166.808C72.5643 166.785 72.7534 166.72 72.9228 166.619C73.0922 166.517 73.238 166.381 73.3506 166.218C73.4631 166.056 73.5398 165.872 73.5756 165.677C74.2186 162.861 70.6941 161.607 68.2684 161.55C69.4406 160.736 72.8104 158.514 71.0197 157.424C69.2289 156.333 65.2567 159.499 63.9706 160.541C62.0741 162.079 59.8193 164.375 59.7298 166.776C59.5833 169.584 62.0334 167.859 63.5311 167.273Z" fill="#DBDBDB"/>
<path d="M62.9532 167.745C65.3951 166.63 70.108 168.233 70.5069 167.305C71.3209 165.417 67.5603 164.123 65.5253 163.87C67.3975 163.366 70.979 162.56 70.8732 160.761C70.7348 158.555 65.3788 160.451 62.6601 162.527C59.2496 165.148 59.2658 167.68 59.8356 168.184C60.6089 168.876 62.5462 167.924 62.9532 167.745Z" fill="#EBEBEB"/>
<path d="M36.0511 164.92C47.5934 175.388 50.1085 192.172 48.3178 207.027C48.3178 207.361 47.748 207.296 47.7399 206.979C47.6096 203.617 47.5852 200.28 47.4468 196.967L47.2596 196.519C44.2805 194.525 41.5129 192.237 39.7385 189.03C37.7361 185.449 36.8488 181.355 35.286 177.586C35.1395 177.228 35.5302 177.317 35.7907 177.496C42.7502 182.234 45.1189 187.525 47.3329 194.631C47.1407 190.876 46.5957 187.148 45.7049 183.495C43.9793 176.739 40.821 170.097 35.7418 165.23C35.579 165.026 35.8558 164.733 36.0511 164.92Z" fill="#A6A6A6"/>
<path d="M34.0081 166.272C32.0952 166.41 31.0126 169.528 29.5556 170.464C29.4043 170.598 29.2265 170.698 29.0336 170.758C28.8408 170.819 28.6374 170.838 28.4368 170.814C28.2361 170.79 28.0428 170.724 27.8695 170.62C27.6962 170.516 27.5468 170.377 27.4311 170.211C25.8764 168.201 27.8055 165.58 29.6614 164.082C28.3183 164.701 27.2195 165.71 25.7624 166.06C25.5747 166.128 25.3743 166.155 25.1751 166.139C24.976 166.122 24.7827 166.063 24.6087 165.965C24.4346 165.867 24.284 165.732 24.167 165.57C24.05 165.408 23.9695 165.222 23.931 165.026C23.174 162.234 26.6578 160.851 29.0753 160.696C27.8707 159.931 24.4194 157.839 26.1694 156.683C27.9195 155.527 32.0057 158.539 33.3325 159.532C35.286 160.997 37.6303 163.203 37.8012 165.604C38.021 168.437 35.5058 166.801 34.0081 166.272Z" fill="#DBDBDB"/>
<path d="M34.5779 166.719C32.0952 165.702 27.4474 167.484 27.016 166.573C26.1369 164.717 29.8405 163.317 31.8999 162.951C30.0114 162.519 26.4055 161.844 26.4462 160.045C26.495 157.839 31.9243 159.524 34.7162 161.502C38.2245 163.992 38.2977 166.516 37.7524 167.045C36.971 167.769 34.993 166.89 34.5779 166.719Z" fill="#EBEBEB"/>
<path d="M47.8538 192.571C48.6367 198.172 49.8366 203.706 51.4435 209.128C51.4669 209.234 51.531 209.326 51.622 209.386C51.713 209.445 51.8237 209.467 51.9303 209.445C52.0369 209.424 52.1308 209.362 52.192 209.272C52.2532 209.182 52.2767 209.072 52.2575 208.965C51.5005 203.869 50.1167 198.855 49.3597 193.76C48.5279 188.597 48.2305 183.363 48.4725 178.139C48.9527 169.544 51.2888 160.395 56.8972 153.671C57.0274 153.508 56.7588 153.289 56.6367 153.435C45.4038 166.532 47.1945 182.584 47.2027 184.024C45.5747 178.603 43.9468 172.385 37.9559 166.866C37.6954 166.63 37.4919 166.744 37.5407 167.151C38.607 177.236 41.399 182.453 47.2515 187.818C47.398 189.446 47.6015 191.008 47.8538 192.571Z" fill="#A6A6A6"/>
<path d="M57.0192 155.177C59.0379 154.282 61.8299 156.854 63.8241 157.025C64.051 157.084 64.2878 157.093 64.5184 157.051C64.7491 157.01 64.9681 156.919 65.1605 156.786C65.3529 156.652 65.5142 156.478 65.6334 156.277C65.7525 156.075 65.8267 155.85 65.8509 155.617C66.3474 152.727 62.9613 151.107 60.2589 150.594C61.9601 150.489 63.6287 150.936 65.2974 150.489C65.5216 150.453 65.7359 150.371 65.9265 150.247C66.117 150.123 66.2796 149.961 66.4038 149.771C66.528 149.581 66.611 149.367 66.6476 149.143C66.6841 148.919 66.6734 148.69 66.6161 148.47C65.8753 145.214 61.5775 145.702 59.0379 146.842C59.8519 145.401 62.2206 141.405 59.8519 141.144C57.4832 140.884 54.9192 146.199 54.1133 147.933C52.9168 150.48 51.7284 154.005 52.8517 156.536C54.0889 159.556 55.7576 156.528 57.0192 155.177Z" fill="#DBDBDB"/>
<path d="M56.653 155.942C58.6391 153.557 64.3288 152.849 64.2718 151.685C64.166 149.324 59.6159 149.87 57.3856 150.635C59.0624 149.17 62.3753 146.524 61.3578 144.709C60.1043 142.495 55.4971 147.151 53.7308 150.684C51.5086 155.12 52.8029 157.733 53.6413 157.969C54.7971 158.303 56.3274 156.341 56.653 155.942Z" fill="#EBEBEB"/>
<path d="M40.4629 195.599L35.5139 233.449H65.6312C65.0125 230.096 59.4042 195.558 59.4042 195.558L40.4629 195.599Z" fill="#DBDBDB"/>
<path d="M334.423 84.955H355.978V75.8466H334.423V84.955Z" fill="#EBEBEB"/>
<path d="M346.446 73.4697H368V64.3612H346.446V73.4697Z" fill="#EBEBEB"/>
<path d="M322.393 73.4697H343.947V64.3612H322.393V73.4697Z" fill="#EBEBEB"/>
<path d="M12.0225 202.428H33.5767V193.32H12.0225V202.428Z" fill="#EBEBEB"/>
<path d="M-2.8662e-05 190.943H21.5541V181.835H-2.8662e-05V190.943Z" fill="#EBEBEB"/>
<path d="M346.446 202.42H368V193.312H346.446V202.42Z" fill="#EBEBEB"/>
<path d="M93.5751 0H72.0209V9.10842H93.5751V0Z" fill="#EBEBEB"/>
<path d="M81.5445 11.4854H59.9903V20.5938H81.5445V11.4854Z" fill="#EBEBEB"/>
<path d="M27.6753 233.417L66.7545 233.221L105.834 233.148L184 233.01L262.158 233.148L301.246 233.221L340.325 233.417L301.246 233.62L262.158 233.685L184 233.824L105.834 233.685L66.7545 233.612L27.6753 233.417Z" fill="#263238"/>
<path d="M121.649 117.718C121.441 117.479 121.218 117.253 120.982 117.042C120.769 116.807 120.543 116.585 120.306 116.375C120.096 116.137 119.873 115.912 119.639 115.699C119.428 115.462 119.202 115.239 118.963 115.032C118.751 114.795 118.524 114.568 118.296 114.356C118.09 114.117 117.867 113.894 117.628 113.688C117.415 113.451 117.19 113.226 116.953 113.013C116.747 112.774 116.524 112.551 116.285 112.345C116.072 112.111 115.847 111.888 115.61 111.678C114.921 110.918 114.116 110.273 113.225 109.765V42.4978C113.225 42.1397 113.054 41.9606 113.054 41.6024C113.098 41.2372 113.036 40.867 112.875 40.5361C112.875 40.3571 112.704 39.9989 112.704 39.8198C112.606 39.4539 112.483 39.0949 112.337 38.7454C112.149 38.5488 112.027 38.2984 111.987 38.0291C111.782 37.7075 111.542 37.4099 111.271 37.1418C111.084 36.9628 110.913 36.6128 110.734 36.4255L110.017 35.7092C110.017 35.6034 109.879 35.4895 109.724 35.4243L109.374 35.0662H109.334C109.334 34.9522 109.203 34.8464 109.049 34.7732L108.691 34.4232C108.691 34.3173 108.552 34.2034 108.398 34.1301L108.048 33.7801C108.048 33.6661 107.909 33.5603 107.755 33.4871L107.405 33.1289C107.405 33.0231 107.266 32.9092 107.112 32.8359L106.753 32.4859V32.4452C106.753 32.3394 106.615 32.2336 106.46 32.1603L106.11 31.8021H106.07C106.07 31.6963 105.939 31.5824 105.785 31.5091L105.427 31.1591V31.1184C105.427 31.0126 105.288 30.9068 105.134 30.8335L104.784 30.4754H104.743C104.743 30.3614 104.613 30.2556 104.458 30.1823L104.1 29.8323C104.1 29.7265 103.961 29.6125 103.807 29.5474L103.416 29.1567C103.416 28.9776 103.066 28.7986 102.879 28.7986C102.88 28.7754 102.876 28.7523 102.868 28.7306C102.86 28.709 102.848 28.6891 102.832 28.6724C102.816 28.6556 102.797 28.6423 102.775 28.6332C102.754 28.6241 102.731 28.6195 102.708 28.6195C102.35 28.4485 102.163 28.2613 101.813 28.0822C101.505 27.859 101.209 27.6199 100.925 27.366C100.746 27.366 100.388 27.195 100.209 27.195C99.8509 27.0159 99.3137 27.0159 99.1346 26.8287C98.8261 26.8538 98.5167 26.7948 98.2392 26.6578H95.2112C94.9987 26.7942 94.7461 26.8545 94.4949 26.8287C93.9577 27.0159 93.6077 27.0159 93.4204 27.195C93.0704 27.195 92.8914 27.366 92.7041 27.7322C92.3219 27.7411 91.9509 27.8629 91.6378 28.0822C91.4669 28.2613 91.1006 28.4485 90.9215 28.6195C90.6837 28.8803 90.3756 29.0669 90.0343 29.1567C89.9009 29.4265 89.7187 29.6694 89.4971 29.873C89.318 30.0521 89.318 30.223 89.1471 30.223L22.8322 112.117C21.264 114 20.4813 116.415 20.6465 118.86C20.8117 121.305 21.9122 123.592 23.7194 125.247C23.9286 125.493 24.1573 125.721 24.4031 125.931C24.6075 126.176 24.8337 126.402 25.0787 126.606C25.288 126.852 25.5166 127.081 25.7625 127.29C25.9689 127.536 26.1948 127.764 26.4381 127.974C26.6474 128.217 26.8761 128.443 27.1218 128.649C27.3282 128.895 27.5542 129.124 27.7974 129.333C28.0068 129.576 28.2354 129.802 28.4812 130.009C28.6876 130.254 28.9135 130.483 29.1568 130.692C29.3661 130.936 29.5948 131.162 29.8405 131.368C30.2614 131.846 30.7306 132.28 31.2406 132.662C32.9169 134.12 35.0849 134.885 37.3047 134.803H86.7295V141.567C86.7149 142.944 86.9916 144.309 87.5415 145.571C88.0914 146.834 88.9021 147.966 89.9203 148.893C90.132 149.121 90.3517 149.341 90.5715 149.544C90.7789 149.776 90.999 149.996 91.2308 150.204C91.4425 150.431 91.6622 150.651 91.8902 150.855C92.0976 151.087 92.3177 151.307 92.5495 151.514C92.7611 151.742 92.9809 151.962 93.2088 152.173C93.4141 152.407 93.6343 152.627 93.8681 152.833C94.0716 153.061 94.2914 153.28 94.5193 153.492C94.7267 153.724 94.9468 153.944 95.1786 154.151C95.3821 154.371 95.6019 154.591 95.8298 154.803C97.1743 156.256 98.9254 157.271 100.855 157.715C102.784 158.159 104.803 158.012 106.648 157.293C108.492 156.573 110.078 155.315 111.197 153.682C112.316 152.049 112.918 150.116 112.923 148.136V134.771H114.714C116.017 134.792 117.312 134.554 118.522 134.071C119.732 133.587 120.834 132.868 121.764 131.954C122.693 131.04 123.432 129.951 123.936 128.749C124.441 127.547 124.701 126.257 124.702 124.954C124.721 123.602 124.46 122.261 123.935 121.015C123.409 119.77 122.631 118.647 121.649 117.718ZM86.7132 79.4606V108.308H63.466L86.7132 79.4606Z" fill="#455A64"/>
<path d="M118.117 118.149C118.116 119.453 117.855 120.744 117.35 121.946C116.845 123.149 116.106 124.238 115.176 125.152C114.246 126.066 113.143 126.785 111.931 127.268C110.72 127.751 109.425 127.988 108.121 127.966H106.338V141.535C106.338 144.138 105.304 146.635 103.463 148.476C101.622 150.317 99.1252 151.351 96.5217 151.351C93.9182 151.351 91.4213 150.317 89.5803 148.476C87.7393 146.635 86.7051 144.138 86.7051 141.535V127.966H30.4835C28.2771 128.041 26.1244 127.276 24.4601 125.825C23.4289 125.05 22.5655 124.074 21.9221 122.955C21.2786 121.837 20.8685 120.6 20.7163 119.319C20.5642 118.038 20.6732 116.74 21.0369 115.502C21.4005 114.264 22.0112 113.113 22.8321 112.118L88.8459 29.9789C89.0249 29.9789 89.0249 29.808 89.204 29.6289C89.4257 29.4253 89.6078 29.1824 89.7412 28.9126C90.0837 28.82 90.3938 28.634 90.6366 28.3754C90.8076 28.1963 91.1657 28.0172 91.3448 27.8382C91.6588 27.6135 92.0332 27.4887 92.4192 27.48C92.5983 27.13 92.7774 26.9509 93.1355 26.9509C93.3065 26.7718 93.6646 26.7718 94.2018 26.5928C94.4543 26.6196 94.708 26.5561 94.9181 26.4137H97.9543C98.2261 26.5591 98.5346 26.6214 98.8415 26.5928C99.0206 26.7718 99.5578 26.7718 99.916 26.9509C100.095 26.9509 100.453 27.13 100.632 27.13C100.982 27.48 101.34 27.6591 101.52 27.8382C101.878 28.0172 102.057 28.1963 102.415 28.3754C102.462 28.3754 102.508 28.3942 102.542 28.4278C102.575 28.4614 102.594 28.507 102.594 28.5545C102.773 28.5545 103.131 28.7335 103.131 28.9126L103.839 29.6289C104.018 29.808 104.198 30.158 104.377 30.3371C104.65 30.6064 104.89 30.9069 105.093 31.2325C105.138 31.5018 105.262 31.7514 105.451 31.9487C105.598 32.2934 105.715 32.6502 105.801 33.0151C105.801 33.1941 105.98 33.5523 105.98 33.7314C106.141 34.065 106.203 34.4379 106.159 34.8058C106.159 35.1558 106.338 35.3349 106.338 35.6931V108.333H108.121C110.745 108.319 113.268 109.344 115.14 111.183C117.012 113.021 118.082 115.525 118.117 118.149ZM86.7051 64.2475L51.1912 108.333H86.7051V64.2475Z" fill="url(#paint0_linear_104_4303)"/>
<path d="M222.526 53.0226C220.511 49.9564 218.169 47.118 215.542 44.5573C215.445 44.4507 215.342 44.3502 215.232 44.2561L215.143 44.1666C215.062 44.077 214.98 43.9875 214.891 43.9061C214.663 43.6619 214.418 43.434 214.182 43.1979L214.117 43.1409L213.873 42.8967C213.845 42.8649 213.815 42.835 213.784 42.8072C213.702 42.7177 213.621 42.6281 213.531 42.5467C213.303 42.3025 213.059 42.0746 212.823 41.8386L212.758 41.7816L212.514 41.5374L212.424 41.4479C212.343 41.3583 212.261 41.2688 212.172 41.1874C211.944 40.9432 211.7 40.7153 211.464 40.4792L211.399 40.4222L211.154 40.178C211.154 40.178 211.097 40.1129 211.065 40.0885C210.984 39.9957 210.897 39.9087 210.804 39.828C210.585 39.5757 210.34 39.3559 210.104 39.1199L210.039 39.0629C209.964 38.9755 209.882 38.8939 209.795 38.8187C209.795 38.8187 209.738 38.7536 209.706 38.7292C202.534 31.3382 193.19 26.4462 182.706 26.4462C168.6 26.4462 157.009 34.8383 149.504 46.2503C141.649 57.6461 137.554 72.5012 137.375 88.911C137.554 105.191 141.649 120.143 149.504 131.572C151.515 134.592 153.831 137.399 156.414 139.947L156.772 140.298V140.338L157.407 140.973C157.513 141.095 157.627 141.201 157.733 141.307L158.091 141.657L158.132 141.698L158.767 142.332L159.092 142.674L159.45 143.016C159.468 143.025 159.482 143.04 159.491 143.057L160.126 143.692L160.452 144.034L160.81 144.376C160.82 144.381 160.828 144.387 160.835 144.396C160.842 144.404 160.847 144.414 160.851 144.424L161.485 145.059L161.819 145.393L162.169 145.735L162.218 145.784L162.853 146.419C169.902 153.46 179.002 158.189 189.462 158.189C203.202 158.189 214.98 149.618 222.485 138.368C230.153 126.973 234.442 111.955 234.442 95.7159C234.467 79.2653 230.193 64.4509 222.526 53.0226ZM199.303 120.477C194.126 128.145 188.233 131.539 182.706 131.539C179.305 131.457 176.014 130.319 173.288 128.283C173.036 127.958 172.792 127.616 172.547 127.258C167.55 119.761 163.976 108.341 163.976 95.667C163.976 82.8143 167.55 71.5732 172.547 63.9218C177.912 56.4251 183.943 52.8599 189.503 53.0308C192.725 53.0161 195.866 54.044 198.456 55.9611C198.741 56.3437 199.018 56.7181 199.27 57.117C204.268 64.7928 207.833 76.0338 207.833 88.8622C207.866 101.536 204.301 112.972 199.303 120.477Z" fill="#37474F"/>
<path opacity="0.1" d="M224.382 50.7842C222.367 47.718 220.025 44.8796 217.398 42.3188C217.301 42.2123 217.197 42.1118 217.088 42.0177L216.999 41.9281C216.917 41.8386 216.836 41.7491 216.746 41.6677C216.519 41.4235 216.274 41.1956 216.038 40.9595L215.973 40.9025L215.729 40.6583C215.701 40.6265 215.671 40.5966 215.639 40.5688C215.558 40.4793 215.477 40.3897 215.387 40.3083C215.159 40.0641 214.915 39.8362 214.679 39.6002L214.614 39.5432L214.37 39.299L214.28 39.2094C214.199 39.1199 214.117 39.0304 214.028 38.949C213.8 38.7048 213.556 38.4769 213.32 38.2408L213.254 38.1838L213.01 37.9396C213.01 37.9396 212.953 37.8745 212.921 37.8501C212.84 37.7573 212.753 37.6702 212.66 37.5896C212.44 37.3373 212.196 37.1175 211.96 36.8815L211.895 36.8245C211.82 36.7371 211.738 36.6555 211.651 36.5803C211.651 36.5803 211.594 36.5152 211.561 36.4907C204.39 29.0998 195.046 24.2078 184.562 24.2078C170.455 24.2078 158.864 32.5999 151.359 44.0119C143.505 55.4076 139.41 70.2628 139.231 86.6726C139.41 102.952 143.505 117.905 151.359 129.333C153.371 132.354 155.687 135.161 158.27 137.709L158.628 138.059V138.1L159.263 138.735C159.369 138.857 159.483 138.963 159.589 139.068L159.947 139.418L159.988 139.459L160.623 140.094L160.948 140.436L161.306 140.778C161.324 140.787 161.338 140.801 161.347 140.818L161.982 141.453L162.308 141.795L162.666 142.137C162.675 142.142 162.684 142.149 162.691 142.157C162.698 142.166 162.703 142.176 162.706 142.186L163.341 142.821L163.675 143.155L164.025 143.496L164.074 143.545L164.709 144.18C171.758 151.221 180.858 155.95 191.318 155.95C205.058 155.95 216.836 147.379 224.341 136.13C232.009 124.734 236.298 109.716 236.298 93.4774C236.323 77.0269 232.049 62.2125 224.382 50.7842ZM201.159 118.239C195.982 125.906 190.089 129.301 184.562 129.301C181.161 129.218 177.87 128.08 175.144 126.045C174.892 125.719 174.647 125.377 174.403 125.019C169.405 117.522 165.832 106.102 165.832 93.4286C165.832 80.5759 169.405 69.3348 174.403 61.6834C179.767 54.1867 185.799 50.6214 191.358 50.7924C194.581 50.7777 197.722 51.8056 200.312 53.7227C200.597 54.1053 200.874 54.4797 201.126 54.8785C206.124 62.5544 209.689 73.7954 209.689 86.6237C209.722 99.2974 206.157 110.734 201.159 118.239Z" fill="#455A64"/>
<path d="M137.367 88.8785C137.546 72.4605 141.657 57.6461 149.504 46.226C157 34.8302 168.6 26.4137 182.706 26.4137C196.446 26.4137 208.224 34.8058 215.721 46.226C223.397 57.6217 227.678 72.4605 227.678 88.8785C227.678 105.158 223.397 120.119 215.721 131.539C208.224 142.78 196.446 151.351 182.706 151.351C168.6 151.351 157 142.78 149.504 131.539C141.673 120.119 137.546 105.125 137.367 88.8785ZM207.866 88.8785C207.866 76.0339 204.301 64.7847 199.303 57.1333C194.126 49.6365 188.241 46.0713 182.706 46.2504C177.171 46.0713 171.099 49.6365 165.751 57.1333C160.753 64.8091 157.179 76.0583 157.179 88.8785C157.179 101.552 160.753 112.98 165.751 120.469C171.099 128.145 177.146 131.539 182.706 131.539C188.265 131.539 194.102 128.145 199.303 120.469C204.301 112.98 207.866 101.536 207.866 88.8785Z" fill="url(#paint1_linear_104_4303)"/>
<path d="M344.118 117.718C343.906 117.482 343.678 117.254 343.45 117.042C343.231 116.806 343.003 116.586 342.775 116.375C342.555 116.139 342.335 115.911 342.107 115.699C341.888 115.463 341.66 115.235 341.432 115.032C341.212 114.795 340.992 114.568 340.764 114.356C340.545 114.12 340.317 113.892 340.089 113.688C339.869 113.452 339.641 113.224 339.421 113.013C339.211 112.778 338.988 112.555 338.754 112.345C338.534 112.109 338.306 111.89 338.078 111.678C337.388 110.916 336.58 110.27 335.685 109.765V42.4978C335.685 42.1397 335.514 41.9606 335.514 41.6024C335.558 41.2372 335.496 40.867 335.335 40.5361C335.335 40.3571 335.164 39.9989 335.164 39.8198C335.066 39.4539 334.944 39.0949 334.798 38.7454C334.613 38.5464 334.491 38.2972 334.448 38.0291C334.246 37.7056 334.005 37.4077 333.732 37.1418C333.544 36.9628 333.373 36.6128 333.194 36.4255L332.478 35.7092C332.478 35.6034 332.34 35.4895 332.185 35.4243L331.835 35.0662H331.794C331.794 34.9522 331.664 34.8464 331.509 34.7732L331.151 34.4232C331.151 34.3173 331.013 34.2034 330.858 34.1301L330.508 33.7801C330.508 33.6661 330.37 33.5603 330.215 33.4871L329.865 33.1289C329.865 33.0231 329.727 32.9092 329.572 32.8359L329.214 32.4859V32.4452C329.214 32.3394 329.076 32.2336 328.921 32.1603L328.571 31.8021H328.53C328.53 31.6963 328.4 31.5824 328.245 31.5091L327.887 31.1591V31.1184C327.887 31.0126 327.749 30.9068 327.594 30.8335L327.244 30.4754H327.203C327.203 30.3614 327.073 30.2556 326.919 30.1823L326.56 29.8323C326.56 29.7265 326.422 29.6125 326.267 29.5474L325.877 29.1567C325.877 28.9776 325.527 28.7986 325.339 28.7986C325.339 28.775 325.335 28.7518 325.326 28.73C325.317 28.7083 325.304 28.6886 325.287 28.6719C325.27 28.6553 325.251 28.6421 325.229 28.6331C325.207 28.6241 325.184 28.6195 325.16 28.6195C324.81 28.4485 324.623 28.2613 324.273 28.0822C323.965 27.859 323.669 27.6199 323.386 27.366C323.207 27.366 322.849 27.195 322.67 27.195C322.311 27.0159 321.782 27.0159 321.595 26.8287C321.287 26.8547 320.977 26.7955 320.7 26.6578H317.672C317.459 26.7942 317.207 26.8545 316.955 26.8287C316.418 27.0159 316.068 27.0159 315.881 27.195C315.531 27.195 315.352 27.366 315.165 27.7322C314.783 27.7421 314.412 27.8638 314.098 28.0822C313.927 28.2613 313.561 28.4485 313.39 28.6195C313.147 28.8781 312.837 29.0641 312.495 29.1567C312.359 29.4249 312.177 29.6673 311.958 29.873C311.779 30.0521 311.779 30.223 311.608 30.223L245.276 112.117C243.708 114 242.926 116.415 243.091 118.86C243.256 121.305 244.356 123.592 246.164 125.247C246.373 125.493 246.602 125.721 246.847 125.931C247.052 126.176 247.278 126.402 247.523 126.606C247.732 126.852 247.961 127.081 248.207 127.29C248.889 127.967 249.567 128.648 250.242 129.333C250.7 129.781 251.153 130.234 251.601 130.692C251.81 130.936 252.039 131.162 252.285 131.368C252.706 131.847 253.175 132.28 253.685 132.662C255.361 134.12 257.529 134.885 259.749 134.803H309.174V141.567C309.159 142.944 309.436 144.309 309.986 145.571C310.536 146.834 311.346 147.966 312.365 148.893C312.576 149.129 312.804 149.349 313.024 149.552C313.227 149.78 313.447 149.992 313.675 150.204C313.885 150.436 314.108 150.656 314.343 150.863C314.554 151.091 314.766 151.302 314.994 151.514C315.205 151.75 315.433 151.97 315.661 152.182C315.873 152.409 316.084 152.629 316.312 152.833C316.524 153.069 316.752 153.289 316.98 153.5C317.191 153.728 317.403 153.948 317.631 154.151C317.838 154.386 318.058 154.609 318.29 154.819C319.635 156.273 321.387 157.288 323.317 157.732C325.248 158.176 327.267 158.028 329.112 157.307C330.957 156.587 332.542 155.327 333.661 153.693C334.78 152.058 335.38 150.125 335.384 148.144V134.771H337.175C338.479 134.793 339.775 134.556 340.986 134.073C342.198 133.59 343.302 132.871 344.233 131.957C345.164 131.044 345.904 129.954 346.409 128.752C346.915 127.549 347.177 126.258 347.178 124.954C347.197 123.602 346.935 122.26 346.408 121.014C345.881 119.769 345.101 118.646 344.118 117.718ZM309.174 79.4606V108.308H285.927L309.174 79.4606Z" fill="#37474F"/>
<path d="M340.577 118.149C340.576 119.453 340.316 120.744 339.811 121.946C339.306 123.149 338.567 124.238 337.636 125.152C336.706 126.066 335.603 126.785 334.392 127.268C333.181 127.751 331.885 127.988 330.581 127.966H328.799V141.535C328.799 144.138 327.765 146.635 325.924 148.476C324.083 150.317 321.586 151.351 318.982 151.351C316.379 151.351 313.882 150.317 312.041 148.476C310.2 146.635 309.166 144.138 309.166 141.535V127.966H252.944C250.724 128.051 248.555 127.285 246.88 125.825C245.844 125.05 244.976 124.072 244.33 122.951C243.683 121.83 243.272 120.589 243.119 119.304C242.967 118.019 243.078 116.717 243.444 115.476C243.811 114.235 244.426 113.081 245.252 112.085L311.306 29.9789C311.486 29.9789 311.486 29.808 311.665 29.6289C311.886 29.4253 312.068 29.1824 312.202 28.9126C312.544 28.82 312.854 28.634 313.097 28.3754C313.276 28.1963 313.634 28.0172 313.814 27.8382C314.124 27.6123 314.496 27.4873 314.88 27.48C315.059 27.13 315.238 26.9509 315.588 26.9509C315.767 26.7718 316.125 26.7718 316.662 26.5928C316.915 26.6196 317.169 26.5561 317.379 26.4137H320.415C320.687 26.5591 320.995 26.6214 321.302 26.5928C321.481 26.7718 322.018 26.7718 322.377 26.9509C322.556 26.9509 322.914 27.13 323.093 27.13C323.451 27.48 323.801 27.6591 323.98 27.8382C324.338 28.0172 324.517 28.1963 324.875 28.3754C324.923 28.3754 324.969 28.3942 325.002 28.4278C325.036 28.4614 325.055 28.507 325.055 28.5545C325.234 28.5545 325.584 28.7335 325.584 28.9126L326.3 29.6289C326.479 29.808 326.658 30.158 326.837 30.3371C327.11 30.6064 327.351 30.9069 327.553 31.2325C327.598 31.5018 327.723 31.7514 327.912 31.9487C328.058 32.2945 328.178 32.651 328.27 33.0151C328.27 33.1941 328.441 33.5523 328.441 33.7314C328.602 34.065 328.664 34.4379 328.62 34.8058C328.62 35.1558 328.799 35.3349 328.799 35.6931V108.333H330.581C333.206 108.319 335.729 109.344 337.601 111.183C339.473 113.021 340.543 115.525 340.577 118.149ZM309.166 64.2475L273.652 108.333H309.166V64.2475Z" fill="url(#paint2_linear_104_4303)"/>
<path d="M208.639 128.194C208.611 128.38 208.648 128.57 208.745 128.732C208.841 128.894 208.991 129.017 209.168 129.081C210.023 129.211 211.065 129.349 212.221 129.512C215.664 122.04 219.18 116.155 218.187 118.483C216.67 122.14 215.676 125.993 215.232 129.927C216.575 130.106 219.709 130.489 221.272 130.676C224.87 117.343 228.834 107.543 228.37 110.62C226.482 123.033 226.815 127.087 227.247 131.425C241.841 133.2 261.011 135.3 274.905 136.496C277.176 129.17 279.301 121.161 279.496 121.747C281.018 126.102 280.986 132.255 280.603 136.976C285.031 137.326 288.58 137.514 290.753 137.514C290.753 137.514 292.381 131.311 292.674 129.26C293.546 124.011 293.496 118.651 292.528 113.42C291.527 108.08 289.394 103.278 287.4 98.3694C287.394 98.339 287.386 98.3091 287.375 98.2799C286.053 95.0642 285.102 91.7078 284.543 88.2761C284.537 88.2492 284.537 88.2215 284.543 88.1947C284.171 85.692 284.01 83.1624 284.062 80.6328C284.242 71.3697 280.09 63.0427 272.203 60.031C258.731 46.2666 240.23 52.5831 235.004 64.223C232.961 69.4406 230.934 76.2536 229.168 81.5038C229.173 81.5124 229.175 81.5222 229.175 81.5322C229.175 81.5423 229.173 81.5521 229.168 81.5607C228.501 83.6201 227.71 85.6371 226.799 87.6005C221.956 96.9775 212.628 101.813 208.639 128.194Z" fill="#263238"/>
<path d="M275.451 62.7661C280.505 66.1115 283.387 70.678 283.59 77.4666C283.721 81.4225 283.59 85.2726 284.705 89.0739C285.821 92.9973 287.839 96.302 289.931 99.5986C293.244 104.841 295.426 109.985 295.417 116.627C295.409 123.269 294.408 131.279 291.73 137.375C291.73 137.416 291.665 137.375 291.681 137.375C293.96 131.148 294.791 122.374 294.327 115.65C293.814 108.259 290.363 103.392 286.895 97.5556C284.101 92.9227 282.556 87.6446 282.41 82.2365C282.312 78.8829 282.671 75.4235 281.694 72.2001C280.538 68.3581 277.77 65.7615 275.003 63.4417C274.637 63.108 275.068 62.5138 275.451 62.7661Z" fill="#263238"/>
<path d="M216.852 97.3113C221.069 92.3541 225.375 88.1784 228.158 81.8457C230.69 76.0745 232.391 69.9127 234.955 64.1579C234.955 64.0602 235.126 64.109 235.085 64.2149C231.015 74.471 229.453 85.0039 222.338 93.3635C218.464 97.9055 214.63 102.097 211.846 107.673C209 113.553 207.219 119.892 206.588 126.395C206.588 126.623 206.287 126.59 206.287 126.395C206.283 115.76 210.023 105.464 216.852 97.3113Z" fill="#263238"/>
<path d="M175.86 223.633C175.86 223.633 215.151 234.215 221.647 233.075C228.142 231.935 250.071 202.421 254.938 191.717C259.806 181.013 267.889 127.762 266.334 121.902C264.779 116.041 256.648 115.96 249.786 131.067C242.924 146.175 226.701 179.385 223.812 182.12C220.922 184.855 172.694 220.8 175.86 223.633Z" fill="#DD6A57"/>
<path d="M218.236 229.575C212.213 226.425 204.879 218.781 199.881 217.984C198.658 217.744 197.391 217.905 196.267 218.441C195.142 218.978 194.221 219.862 193.638 220.963C193.638 220.963 191.342 215.859 186.686 215.884C184.301 215.884 182.217 219.726 182.217 219.726C182.217 219.726 180.191 215.713 176.064 215.989C172.767 216.209 171.18 220.019 171.18 220.019C171.18 220.019 167.452 217.072 164.163 218.391C157.505 221.02 156.398 249.322 166.654 254.108C171.432 256.338 171.326 249.411 171.326 249.411C171.326 249.411 173.882 259.342 179.71 259.716C185.538 260.091 184.863 251.104 184.863 251.104C184.863 251.104 187.427 260.701 193.507 260.481C199.84 260.262 197.626 251.381 197.626 251.381C197.626 251.381 201.647 257.844 206.262 256.607C213.889 254.572 205.693 239.253 207.418 233.091H216.999L218.236 229.575Z" fill="#DD6A57"/>
<path d="M209.543 223.551C215.509 226.042 222.314 216.624 228.451 218.814C236.412 221.655 229.054 231.48 216.991 233.075H207.41L209.543 223.551Z" fill="#DD6A57"/>
<path d="M170.83 220.58C170.83 220.561 170.822 220.542 170.808 220.529C170.795 220.515 170.776 220.507 170.757 220.507C170.737 220.507 170.719 220.515 170.705 220.529C170.691 220.542 170.683 220.561 170.683 220.58C168.054 229.803 167.981 240.743 171.278 249.81C171.383 250.103 171.921 250.063 171.864 249.713C170.252 239.684 169.617 230.682 170.83 220.58Z" fill="#263238"/>
<path d="M182.16 219.563C182.16 219.449 181.989 219.425 181.957 219.563C179.295 229.086 179.515 241.402 184.586 251.414C184.757 251.756 185.262 251.886 185.091 251.479C182.25 244.576 181.021 228.671 182.16 219.563Z" fill="#263238"/>
<path d="M198.212 251.975C193.76 242.208 192.889 231.976 193.507 221.345C193.507 221.207 193.32 221.207 193.279 221.345C191.562 226.465 191.879 233.278 192.571 238.561C193.113 243.464 194.928 248.139 197.838 252.122C197.984 252.293 198.31 252.187 198.212 251.975Z" fill="#263238"/>
<path d="M228.924 218.065C225.016 216.763 221.004 219.888 217.715 221.638C216.662 222.265 215.553 222.791 214.402 223.209C211.797 224.023 209.868 223.502 208.704 222.778C206.881 221.614 201.191 215.932 197.081 217.821C195.663 218.484 194.448 219.516 193.564 220.808C192.311 218.529 190.707 216.046 187.932 215.591C187.32 215.487 186.693 215.514 186.093 215.669C185.492 215.825 184.932 216.106 184.448 216.494C183.93 216.893 183.47 217.362 183.08 217.886C182.694 218.357 182.376 218.88 182.136 219.441C182.135 219.422 182.135 219.403 182.136 219.384L182.046 219.213L181.876 218.863C181.643 218.394 181.313 217.98 180.907 217.65C180.83 217.571 180.737 217.509 180.635 217.467C180.533 217.425 180.423 217.404 180.313 217.406C180.295 217.406 180.279 217.413 180.267 217.425C180.254 217.437 180.248 217.454 180.248 217.471C180.248 217.488 180.254 217.505 180.267 217.517C180.279 217.529 180.295 217.536 180.313 217.536C180.503 217.627 180.658 217.778 180.752 217.967C180.882 218.163 181.005 218.366 181.143 218.553C181.281 218.741 181.412 218.936 181.55 219.123L181.753 219.424L181.843 219.579C181.882 219.629 181.926 219.675 181.973 219.717C181.985 219.733 181.999 219.745 182.016 219.753C182.033 219.762 182.052 219.766 182.071 219.766C182.09 219.766 182.109 219.762 182.125 219.753C182.142 219.745 182.157 219.733 182.169 219.717C182.587 219.345 182.966 218.93 183.3 218.48C183.71 218.003 184.165 217.567 184.659 217.178C185.129 216.815 185.669 216.555 186.245 216.414C186.822 216.274 187.421 216.257 188.005 216.364C190.496 216.852 192.075 219.066 193.401 221.044C193.401 221.044 193.401 221.044 193.442 221.044C193.401 221.109 193.491 221.166 193.54 221.117C194.907 219.921 196.21 218.578 198.098 218.301C200.133 218 202.062 218.977 203.747 220.002C204.591 220.499 205.406 221.042 206.189 221.63C206.881 222.167 207.54 222.77 208.281 223.258C211.447 225.252 214.915 223.706 215.778 223.34C217.479 222.573 219.13 221.698 220.719 220.719C222.316 219.648 224.117 218.919 226.009 218.578C226.878 218.45 227.765 218.544 228.588 218.851C229.411 219.159 230.142 219.67 230.714 220.336C231.308 221.101 232.065 222.534 230.511 225.798C230.511 225.798 230.511 225.863 230.56 225.838C231.374 224.992 233.962 219.75 228.924 218.065Z" fill="#263238"/>
<path d="M263.249 171.359L226.172 165.433C226.172 165.433 243.884 130.359 254.523 120.184C265.024 110.14 270.135 120.428 268.589 135.943C266.879 153.142 263.249 171.359 263.249 171.359Z" fill="url(#paint3_linear_104_4303)"/>
<path d="M262.044 164.456C261.002 164.212 259.936 164.058 258.894 163.822C257.852 163.586 256.851 163.439 255.826 163.284C253.734 162.959 251.634 162.666 249.542 162.381C245.407 161.811 241.272 161.184 237.12 160.753C234.76 160.492 232.416 160.134 230.047 159.939C229.974 159.939 229.965 160.053 230.047 160.069C234.157 161.03 238.341 161.697 242.509 162.422C246.676 163.146 250.779 163.732 254.93 164.18C256.094 164.31 257.266 164.456 258.43 164.513C259.594 164.57 260.832 164.684 262.028 164.701C262.06 164.703 262.092 164.692 262.117 164.671C262.141 164.649 262.156 164.619 262.158 164.587C262.16 164.554 262.15 164.522 262.128 164.498C262.107 164.474 262.077 164.459 262.044 164.456Z" fill="#263238"/>
<path d="M242.607 233.401H340.797C340.797 233.401 299.984 132.109 279.236 117.311C273.009 112.866 263.086 112.37 256.395 121.291C250.909 128.617 235.68 157.717 234.988 168.185C234.296 178.652 242.509 188.998 242.509 188.998L242.607 233.401Z" fill="url(#paint4_linear_104_4303)"/>
<path d="M275.117 164.766C275.369 164.701 275.613 164.668 275.858 164.619C276.073 164.57 276.296 164.571 276.512 164.62C276.727 164.669 276.928 164.766 277.101 164.904C277.274 165.041 277.413 165.216 277.509 165.414C277.606 165.613 277.656 165.831 277.656 166.052C277.65 166.248 277.695 166.443 277.786 166.617C277.878 166.791 278.012 166.938 278.177 167.045C278.362 167.161 278.571 167.233 278.788 167.256C279.037 167.293 279.284 167.342 279.529 167.403C279.284 167.468 279.04 167.501 278.788 167.55C278.515 167.604 278.233 167.578 277.974 167.476C277.699 167.359 277.464 167.162 277.3 166.912C277.137 166.661 277.051 166.367 277.054 166.068C277.049 165.872 276.996 165.681 276.897 165.512C276.799 165.343 276.66 165.201 276.492 165.099C276.299 164.994 276.085 164.93 275.866 164.912C275.613 164.863 275.369 164.831 275.117 164.766Z" fill="white"/>
<path d="M237.56 164.766C237.804 164.701 238.048 164.668 238.292 164.619C238.508 164.57 238.731 164.571 238.947 164.62C239.162 164.669 239.363 164.766 239.536 164.904C239.709 165.041 239.848 165.216 239.944 165.414C240.04 165.613 240.091 165.831 240.091 166.052C240.087 166.249 240.133 166.444 240.226 166.618C240.318 166.792 240.454 166.939 240.62 167.045C240.804 167.163 241.013 167.236 241.231 167.256C241.475 167.305 241.719 167.33 241.963 167.403C241.719 167.468 241.475 167.501 241.231 167.55C240.958 167.602 240.676 167.577 240.417 167.476C240.143 167.356 239.911 167.159 239.748 166.909C239.584 166.659 239.497 166.367 239.497 166.068C239.492 165.872 239.439 165.681 239.34 165.512C239.242 165.343 239.103 165.201 238.935 165.099C238.742 164.993 238.529 164.929 238.309 164.912C238.048 164.863 237.804 164.831 237.56 164.766Z" fill="white"/>
<path d="M288.759 213.556C289.003 213.491 289.256 213.458 289.5 213.409C289.715 213.363 289.938 213.366 290.152 213.417C290.366 213.468 290.566 213.566 290.738 213.704C290.909 213.842 291.048 214.016 291.144 214.214C291.239 214.413 291.289 214.63 291.291 214.85C291.288 215.047 291.336 215.241 291.428 215.414C291.521 215.588 291.655 215.735 291.82 215.843C292.005 215.956 292.214 216.026 292.43 216.046C292.674 216.095 292.927 216.128 293.171 216.193C292.927 216.266 292.674 216.299 292.43 216.348C292.157 216.399 291.874 216.371 291.616 216.266C291.341 216.148 291.106 215.952 290.941 215.701C290.776 215.451 290.688 215.158 290.688 214.858C290.687 214.663 290.634 214.471 290.536 214.303C290.437 214.134 290.296 213.994 290.127 213.898C289.938 213.787 289.726 213.723 289.508 213.71C289.256 213.661 289.003 213.629 288.759 213.556Z" fill="white"/>
<path d="M305.739 167.403C305.983 167.33 306.235 167.305 306.479 167.257C306.694 167.208 306.918 167.208 307.132 167.257C307.347 167.306 307.548 167.403 307.72 167.541C307.892 167.679 308.031 167.853 308.126 168.052C308.222 168.251 308.271 168.469 308.27 168.689C308.267 168.886 308.314 169.08 308.407 169.254C308.499 169.427 308.634 169.575 308.799 169.682C308.982 169.8 309.192 169.87 309.41 169.886C309.654 169.943 309.906 169.967 310.15 170.04C309.906 170.105 309.654 170.138 309.41 170.187C309.137 170.241 308.854 170.216 308.596 170.114C308.32 169.996 308.085 169.799 307.92 169.549C307.755 169.299 307.668 169.005 307.668 168.705C307.666 168.509 307.614 168.317 307.515 168.147C307.417 167.977 307.276 167.836 307.106 167.737C306.916 167.63 306.705 167.566 306.488 167.55C306.235 167.468 305.983 167.468 305.739 167.403Z" fill="white"/>
<path d="M262.329 142.585C262.582 142.52 262.826 142.487 263.07 142.438C263.341 142.379 263.624 142.399 263.884 142.495C264.167 142.601 264.41 142.789 264.583 143.037C264.756 143.284 264.85 143.577 264.853 143.879C264.852 144.075 264.9 144.269 264.992 144.442C265.084 144.615 265.218 144.763 265.382 144.872C265.569 144.982 265.777 145.051 265.992 145.076C266.245 145.124 266.489 145.157 266.733 145.222C266.489 145.295 266.245 145.32 265.992 145.377C265.718 145.424 265.437 145.396 265.178 145.295C264.899 145.176 264.662 144.976 264.498 144.721C264.334 144.465 264.25 144.166 264.258 143.863C264.255 143.668 264.201 143.477 264.103 143.309C264.004 143.141 263.865 143.001 263.697 142.902C263.505 142.79 263.291 142.723 263.07 142.707C262.826 142.682 262.582 142.658 262.329 142.585Z" fill="white"/>
<path d="M289.052 142.023C289.296 141.958 289.541 141.925 289.793 141.877C290.064 141.819 290.346 141.839 290.607 141.934C290.889 142.041 291.133 142.23 291.307 142.476C291.481 142.723 291.577 143.016 291.584 143.317C291.58 143.514 291.627 143.709 291.719 143.883C291.812 144.056 291.947 144.204 292.113 144.31C292.298 144.425 292.507 144.495 292.723 144.514C292.967 144.563 293.212 144.595 293.464 144.66C293.212 144.734 292.967 144.766 292.723 144.815C292.45 144.867 292.167 144.838 291.909 144.734C291.634 144.616 291.399 144.419 291.234 144.169C291.069 143.919 290.981 143.625 290.981 143.326C290.978 143.131 290.925 142.94 290.827 142.771C290.728 142.603 290.588 142.463 290.42 142.365C290.231 142.255 290.019 142.191 289.801 142.178C289.549 142.139 289.299 142.087 289.052 142.023Z" fill="white"/>
<path d="M271.755 116.375C271.999 116.31 272.252 116.277 272.496 116.228C272.711 116.179 272.934 116.179 273.149 116.229C273.364 116.278 273.565 116.375 273.737 116.513C273.909 116.65 274.048 116.825 274.143 117.024C274.238 117.223 274.287 117.44 274.287 117.661C274.282 117.858 274.328 118.053 274.421 118.227C274.514 118.401 274.65 118.548 274.816 118.654C275 118.771 275.209 118.844 275.426 118.866C275.67 118.914 275.923 118.939 276.167 119.012C275.923 119.077 275.67 119.11 275.426 119.159C275.153 119.213 274.871 119.188 274.612 119.085C274.337 118.967 274.102 118.771 273.937 118.521C273.772 118.27 273.684 117.977 273.684 117.677C273.683 117.481 273.63 117.288 273.532 117.118C273.433 116.949 273.292 116.807 273.123 116.709C272.932 116.602 272.721 116.538 272.504 116.521C272.252 116.472 271.999 116.44 271.755 116.375Z" fill="white"/>
<path d="M255.777 185.18C256.021 185.115 256.265 185.082 256.509 185.034C256.78 184.974 257.063 184.994 257.323 185.091C257.606 185.194 257.851 185.381 258.025 185.627C258.2 185.872 258.295 186.165 258.3 186.466C258.296 186.663 258.342 186.858 258.435 187.032C258.527 187.206 258.663 187.353 258.829 187.459C259.013 187.578 259.222 187.651 259.44 187.671C259.684 187.72 259.928 187.752 260.172 187.817C259.928 187.891 259.684 187.915 259.44 187.964C259.167 188.017 258.885 187.991 258.626 187.891C258.352 187.771 258.12 187.574 257.956 187.323C257.793 187.073 257.706 186.781 257.706 186.483C257.701 186.287 257.647 186.096 257.549 185.926C257.451 185.757 257.312 185.615 257.144 185.514C256.951 185.408 256.737 185.345 256.517 185.327C256.265 185.278 256.021 185.253 255.777 185.18Z" fill="white"/>
<path d="M284.933 229.892C285.178 229.819 285.43 229.786 285.674 229.737C285.889 229.692 286.112 229.694 286.326 229.745C286.541 229.796 286.741 229.894 286.912 230.032C287.084 230.17 287.222 230.344 287.318 230.543C287.414 230.741 287.464 230.958 287.465 231.178C287.463 231.375 287.51 231.569 287.603 231.742C287.695 231.916 287.83 232.063 287.994 232.171C288.178 232.288 288.387 232.358 288.605 232.375C288.849 232.424 289.101 232.456 289.345 232.521C289.101 232.595 288.849 232.627 288.605 232.676C288.331 232.727 288.049 232.699 287.791 232.595C287.514 232.477 287.279 232.281 287.114 232.031C286.949 231.78 286.861 231.486 286.863 231.186C286.861 230.991 286.809 230.8 286.71 230.631C286.612 230.463 286.47 230.323 286.301 230.226C286.112 230.116 285.9 230.051 285.682 230.039C285.406 229.99 285.153 229.957 284.933 229.892Z" fill="white"/>
<path d="M270.567 205.864C270.811 205.799 271.055 205.766 271.299 205.717C271.571 205.661 271.852 205.681 272.113 205.774C272.397 205.879 272.642 206.068 272.816 206.315C272.99 206.562 273.086 206.856 273.09 207.158C273.086 207.355 273.133 207.549 273.226 207.723C273.318 207.897 273.454 208.044 273.619 208.151C273.803 208.267 274.013 208.337 274.23 208.354C274.474 208.403 274.718 208.436 274.97 208.501C274.718 208.574 274.474 208.599 274.23 208.656C273.956 208.702 273.675 208.674 273.416 208.574C273.142 208.454 272.91 208.257 272.746 208.007C272.583 207.757 272.496 207.465 272.496 207.166C272.491 206.972 272.436 206.782 272.338 206.614C272.24 206.446 272.101 206.305 271.934 206.206C271.745 206.091 271.529 206.026 271.307 206.018C271.096 205.961 270.811 205.937 270.567 205.864Z" fill="white"/>
<path d="M244.023 210.235C244.275 210.161 244.519 210.129 244.764 210.08C244.979 210.034 245.202 210.037 245.416 210.087C245.63 210.138 245.83 210.236 246.002 210.374C246.173 210.512 246.312 210.687 246.407 210.885C246.503 211.083 246.553 211.301 246.554 211.521C246.552 211.717 246.599 211.911 246.692 212.085C246.784 212.258 246.919 212.406 247.083 212.514C247.267 212.631 247.477 212.7 247.694 212.717C247.946 212.766 248.19 212.799 248.435 212.864C248.19 212.928 247.943 212.979 247.694 213.018C247.42 213.07 247.138 213.041 246.88 212.937C246.604 212.82 246.368 212.624 246.203 212.373C246.038 212.123 245.951 211.829 245.952 211.529C245.951 211.334 245.899 211.144 245.802 210.976C245.705 210.807 245.566 210.667 245.398 210.568C245.206 210.459 244.992 210.395 244.772 210.381C244.519 210.332 244.275 210.3 244.023 210.235Z" fill="white"/>
<path d="M282.785 185.766C283.029 185.701 283.273 185.669 283.517 185.62C283.733 185.574 283.956 185.577 284.171 185.628C284.385 185.678 284.586 185.776 284.758 185.914C284.93 186.052 285.069 186.226 285.166 186.425C285.262 186.623 285.314 186.84 285.316 187.061C285.312 187.257 285.359 187.452 285.452 187.626C285.544 187.8 285.68 187.947 285.845 188.054C286.029 188.17 286.239 188.239 286.456 188.257C286.7 188.306 286.944 188.338 287.188 188.404C286.944 188.477 286.7 188.501 286.456 188.558C286.182 188.608 285.9 188.58 285.642 188.477C285.368 188.357 285.136 188.16 284.972 187.91C284.809 187.66 284.722 187.367 284.722 187.069C284.717 186.874 284.662 186.684 284.564 186.516C284.466 186.348 284.327 186.208 284.16 186.108C283.97 185.995 283.755 185.931 283.533 185.921C283.306 185.864 283.029 185.84 282.785 185.766Z" fill="white"/>
<path d="M316.719 218.659C316.964 218.594 317.216 218.562 317.46 218.513C317.731 218.453 318.014 218.473 318.274 218.57C318.557 218.675 318.801 218.864 318.973 219.111C319.146 219.358 319.24 219.652 319.243 219.954C319.242 220.15 319.29 220.343 319.382 220.517C319.475 220.69 319.608 220.838 319.772 220.947C319.959 221.056 320.167 221.126 320.382 221.15C320.635 221.199 320.879 221.231 321.123 221.297C320.879 221.37 320.635 221.394 320.382 221.451C320.166 221.491 319.943 221.482 319.731 221.426C319.518 221.369 319.321 221.265 319.153 221.123C318.985 220.98 318.852 220.802 318.762 220.601C318.672 220.4 318.627 220.182 318.632 219.962C318.631 219.766 318.578 219.575 318.48 219.406C318.381 219.238 318.24 219.098 318.071 219.001C317.883 218.888 317.671 218.821 317.452 218.806C317.216 218.749 316.964 218.749 316.719 218.659Z" fill="white"/>
<path d="M303.248 198.578C303.492 198.513 303.745 198.481 303.989 198.432C304.204 198.386 304.427 198.389 304.641 198.439C304.855 198.49 305.055 198.588 305.227 198.726C305.398 198.864 305.537 199.039 305.632 199.237C305.728 199.435 305.778 199.653 305.779 199.873C305.776 200.07 305.822 200.264 305.915 200.438C306.008 200.612 306.143 200.759 306.309 200.866C306.492 200.984 306.702 201.054 306.919 201.069C307.163 201.118 307.416 201.151 307.66 201.216C307.416 201.289 307.163 201.322 306.919 201.37C306.646 201.422 306.363 201.394 306.105 201.289C305.829 201.172 305.593 200.976 305.428 200.725C305.263 200.475 305.176 200.181 305.177 199.881C305.176 199.686 305.123 199.494 305.025 199.325C304.926 199.157 304.785 199.017 304.615 198.92C304.427 198.81 304.215 198.746 303.997 198.733C303.745 198.684 303.492 198.652 303.248 198.578Z" fill="white"/>
<path d="M331.884 227.841C332.136 227.776 332.38 227.743 332.624 227.694C332.84 227.649 333.063 227.651 333.277 227.702C333.491 227.753 333.691 227.851 333.862 227.989C334.034 228.127 334.173 228.302 334.268 228.5C334.364 228.698 334.414 228.915 334.415 229.135C334.413 229.332 334.46 229.526 334.553 229.699C334.645 229.873 334.78 230.02 334.944 230.128C335.128 230.245 335.338 230.315 335.555 230.332C335.807 230.381 336.051 230.413 336.295 230.478C336.051 230.542 335.804 230.594 335.555 230.633C335.281 230.684 334.999 230.656 334.741 230.552C334.465 230.435 334.23 230.239 334.066 229.988C333.902 229.737 333.817 229.443 333.821 229.143C333.816 228.949 333.762 228.759 333.663 228.591C333.565 228.423 333.426 228.283 333.259 228.183C333.067 228.074 332.853 228.01 332.633 227.996C332.38 227.947 332.144 227.914 331.884 227.841Z" fill="white"/>
<path d="M264.584 156.447C264.462 156.667 264.307 156.862 264.169 157.074C264.051 157.26 263.892 157.418 263.704 157.535C263.517 157.652 263.306 157.725 263.086 157.75C262.866 157.774 262.644 157.748 262.435 157.675C262.227 157.602 262.038 157.482 261.882 157.326C261.746 157.184 261.575 157.079 261.387 157.022C261.199 156.965 260.999 156.957 260.807 157C260.595 157.048 260.396 157.146 260.229 157.285C260.028 157.435 259.819 157.573 259.602 157.7C259.733 157.481 259.879 157.285 260.018 157.074C260.177 156.84 260.4 156.656 260.661 156.545C260.936 156.436 261.236 156.411 261.526 156.472C261.815 156.533 262.08 156.677 262.289 156.887C262.43 157.022 262.603 157.12 262.793 157.17C262.982 157.22 263.181 157.22 263.371 157.171C263.582 157.114 263.777 157.008 263.941 156.862C264.201 156.724 264.397 156.569 264.584 156.447Z" fill="white"/>
<path d="M254.759 139.964C254.637 140.184 254.482 140.379 254.344 140.591C254.226 140.777 254.067 140.935 253.88 141.052C253.692 141.169 253.481 141.242 253.261 141.266C253.041 141.291 252.819 141.265 252.611 141.192C252.402 141.119 252.213 140.999 252.057 140.843C251.922 140.7 251.751 140.595 251.563 140.537C251.374 140.48 251.174 140.473 250.982 140.517C250.77 140.565 250.572 140.663 250.404 140.802C250.203 140.952 249.994 141.09 249.778 141.217C249.908 140.998 250.054 140.802 250.193 140.591C250.352 140.357 250.576 140.173 250.836 140.061C251.111 139.953 251.412 139.928 251.701 139.989C251.99 140.05 252.255 140.194 252.464 140.403C252.604 140.54 252.778 140.638 252.968 140.688C253.157 140.738 253.357 140.738 253.546 140.688C253.758 140.631 253.953 140.525 254.116 140.379C254.344 140.241 254.539 140.086 254.759 139.964Z" fill="white"/>
<path d="M304.469 185.14C304.339 185.367 304.192 185.563 304.054 185.766C303.899 186.002 303.682 186.191 303.427 186.312C303.157 186.429 302.858 186.464 302.569 186.412C302.279 186.36 302.011 186.223 301.799 186.019C301.662 185.878 301.492 185.775 301.304 185.718C301.116 185.661 300.917 185.652 300.725 185.693C300.512 185.741 300.314 185.839 300.147 185.978C299.935 186.116 299.74 186.271 299.52 186.393C299.642 186.173 299.797 185.978 299.935 185.766C300.092 185.533 300.312 185.349 300.57 185.237C300.846 185.132 301.146 185.109 301.434 185.169C301.723 185.23 301.988 185.372 302.198 185.579C302.337 185.716 302.509 185.814 302.697 185.864C302.886 185.914 303.084 185.914 303.272 185.864C303.485 185.808 303.683 185.705 303.85 185.563C304.078 185.424 304.274 185.27 304.469 185.14Z" fill="white"/>
<path d="M279.61 131.718C279.488 131.938 279.333 132.133 279.195 132.345C279.043 132.578 278.828 132.764 278.576 132.882C278.301 133.006 277.996 133.046 277.698 132.995C277.401 132.944 277.126 132.806 276.908 132.597C276.771 132.455 276.601 132.35 276.413 132.292C276.226 132.234 276.026 132.224 275.833 132.264C275.621 132.313 275.423 132.41 275.255 132.548C275.044 132.687 274.848 132.841 274.628 132.972C274.751 132.744 274.905 132.548 275.044 132.337C275.201 132.103 275.425 131.922 275.687 131.816C275.962 131.708 276.262 131.682 276.552 131.743C276.841 131.804 277.106 131.948 277.315 132.158C277.457 132.3 277.634 132.403 277.828 132.457C278.021 132.512 278.226 132.515 278.422 132.467C278.632 132.406 278.826 132.301 278.991 132.158C279.236 131.995 279.39 131.84 279.61 131.718Z" fill="white"/>
<path d="M262.37 119.541C262.248 119.761 262.093 119.956 261.955 120.168C261.801 120.402 261.588 120.59 261.336 120.713C261.061 120.836 260.754 120.874 260.457 120.822C260.16 120.77 259.885 120.63 259.668 120.42C259.532 120.278 259.361 120.173 259.173 120.116C258.985 120.059 258.785 120.052 258.593 120.095C258.38 120.141 258.181 120.239 258.015 120.38C257.804 120.518 257.608 120.673 257.388 120.795C257.51 120.575 257.665 120.38 257.804 120.168C257.961 119.932 258.185 119.748 258.447 119.639C258.722 119.531 259.022 119.505 259.312 119.566C259.601 119.627 259.866 119.771 260.075 119.981C260.215 120.118 260.388 120.216 260.578 120.266C260.768 120.316 260.967 120.316 261.157 120.266C261.368 120.208 261.563 120.102 261.727 119.956C261.955 119.818 262.142 119.663 262.37 119.541Z" fill="white"/>
<path d="M278.641 147.216C278.715 147.461 278.739 147.713 278.796 147.957C278.846 148.229 278.827 148.509 278.739 148.771C278.632 149.052 278.442 149.295 278.196 149.468C277.949 149.64 277.656 149.735 277.355 149.74C277.159 149.737 276.964 149.784 276.791 149.876C276.617 149.969 276.47 150.104 276.362 150.269C276.244 150.452 276.174 150.662 276.159 150.879C276.102 151.124 276.077 151.376 276.004 151.62C275.939 151.376 275.906 151.124 275.858 150.879C275.802 150.606 275.83 150.322 275.939 150.065C276.055 149.788 276.251 149.552 276.502 149.387C276.753 149.222 277.047 149.135 277.347 149.137C277.542 149.135 277.733 149.082 277.902 148.984C278.07 148.885 278.21 148.745 278.308 148.576C278.414 148.386 278.478 148.175 278.495 147.957C278.544 147.713 278.576 147.461 278.641 147.216Z" fill="white"/>
<path d="M272.773 190.577C272.838 190.821 272.87 191.074 272.919 191.318C272.965 191.533 272.962 191.756 272.912 191.97C272.861 192.184 272.763 192.384 272.625 192.556C272.487 192.727 272.312 192.866 272.114 192.961C271.916 193.057 271.699 193.107 271.478 193.108C271.282 193.105 271.087 193.151 270.913 193.244C270.739 193.337 270.592 193.472 270.485 193.638C270.371 193.822 270.301 194.031 270.282 194.248C270.233 194.492 270.2 194.745 270.135 194.989C270.062 194.745 270.03 194.492 269.981 194.248C269.929 193.975 269.957 193.692 270.062 193.434C270.18 193.158 270.376 192.924 270.627 192.759C270.877 192.594 271.17 192.506 271.47 192.506C271.665 192.505 271.857 192.452 272.026 192.354C272.194 192.255 272.334 192.114 272.431 191.944C272.541 191.756 272.605 191.544 272.618 191.326C272.667 191.074 272.724 190.821 272.773 190.577Z" fill="white"/>
<path d="M329.702 210.666C329.776 210.91 329.808 211.154 329.857 211.399C329.903 211.614 329.9 211.837 329.849 212.052C329.798 212.267 329.7 212.467 329.563 212.639C329.425 212.811 329.25 212.951 329.052 213.047C328.854 213.144 328.637 213.195 328.416 213.198C328.219 213.194 328.025 213.24 327.851 213.333C327.677 213.426 327.53 213.561 327.423 213.727C327.304 213.909 327.234 214.119 327.22 214.337C327.171 214.581 327.138 214.825 327.073 215.07C327 214.825 326.967 214.581 326.919 214.337C326.869 214.063 326.897 213.781 327 213.523C327.119 213.249 327.316 213.016 327.566 212.852C327.817 212.689 328.109 212.602 328.408 212.603C328.603 212.598 328.793 212.544 328.96 212.446C329.128 212.347 329.269 212.209 329.369 212.042C329.478 211.85 329.542 211.635 329.556 211.415C329.613 211.154 329.645 210.91 329.702 210.666Z" fill="white"/>
<path d="M303.329 153.223C303.395 153.468 303.427 153.712 303.476 153.964C303.533 154.235 303.513 154.517 303.419 154.778C303.312 155.06 303.123 155.304 302.876 155.478C302.63 155.652 302.337 155.748 302.035 155.755C301.838 155.751 301.644 155.798 301.47 155.89C301.296 155.983 301.149 156.118 301.042 156.284C300.928 156.469 300.858 156.678 300.839 156.894C300.79 157.139 300.757 157.383 300.692 157.635C300.619 157.383 300.594 157.139 300.537 156.894C300.497 156.678 300.506 156.455 300.563 156.243C300.62 156.03 300.723 155.833 300.866 155.665C301.009 155.498 301.187 155.364 301.388 155.274C301.589 155.184 301.807 155.139 302.027 155.144C302.222 155.141 302.413 155.088 302.581 154.99C302.749 154.891 302.889 154.751 302.988 154.583C303.101 154.396 303.166 154.183 303.175 153.964C303.232 153.712 303.256 153.468 303.329 153.223Z" fill="white"/>
<path d="M303.329 222.819C303.394 223.063 303.427 223.307 303.476 223.551C303.522 223.767 303.519 223.99 303.468 224.205C303.417 224.419 303.319 224.62 303.181 224.792C303.044 224.964 302.869 225.103 302.671 225.2C302.473 225.296 302.256 225.348 302.035 225.35C301.838 225.346 301.644 225.393 301.47 225.486C301.296 225.578 301.149 225.714 301.042 225.879C300.926 226.063 300.856 226.273 300.839 226.49C300.79 226.734 300.757 226.978 300.692 227.222C300.619 226.978 300.594 226.734 300.537 226.49C300.491 226.216 300.519 225.935 300.619 225.676C300.739 225.402 300.936 225.17 301.186 225.006C301.436 224.843 301.728 224.756 302.027 224.756C302.221 224.751 302.411 224.696 302.579 224.598C302.747 224.5 302.888 224.361 302.987 224.194C303.103 224.005 303.167 223.789 303.175 223.567C303.232 223.331 303.256 223.087 303.329 222.819Z" fill="white"/>
<path d="M316.719 182.974C316.793 183.219 316.817 183.471 316.866 183.715C316.915 183.93 316.915 184.153 316.866 184.368C316.816 184.583 316.719 184.784 316.581 184.956C316.444 185.128 316.269 185.267 316.07 185.362C315.871 185.457 315.654 185.507 315.433 185.506C315.237 185.503 315.042 185.55 314.869 185.642C314.695 185.735 314.548 185.87 314.44 186.035C314.322 186.218 314.252 186.428 314.237 186.645C314.18 186.89 314.155 187.142 314.082 187.386C314.017 187.142 313.984 186.89 313.936 186.645C313.88 186.372 313.908 186.088 314.017 185.831C314.133 185.556 314.327 185.321 314.577 185.156C314.826 184.99 315.118 184.903 315.417 184.904C315.613 184.902 315.806 184.849 315.976 184.751C316.146 184.652 316.287 184.512 316.386 184.342C316.492 184.152 316.556 183.941 316.573 183.723C316.622 183.471 316.679 183.219 316.719 182.974Z" fill="white"/>
<path d="M248.866 192.132C248.939 192.376 248.964 192.62 249.013 192.864C249.061 193.08 249.061 193.303 249.012 193.519C248.963 193.734 248.866 193.935 248.728 194.108C248.591 194.281 248.416 194.42 248.217 194.516C248.019 194.612 247.801 194.663 247.58 194.663C247.383 194.659 247.188 194.705 247.014 194.798C246.84 194.89 246.693 195.026 246.587 195.192C246.467 195.375 246.397 195.585 246.383 195.803C246.326 196.047 246.302 196.291 246.229 196.535C246.164 196.291 246.131 196.047 246.082 195.803C246.029 195.529 246.057 195.246 246.164 194.989C246.281 194.715 246.476 194.481 246.725 194.318C246.974 194.154 247.266 194.068 247.564 194.069C247.759 194.064 247.951 194.011 248.12 193.912C248.289 193.814 248.431 193.675 248.532 193.507C248.64 193.315 248.704 193.101 248.72 192.881C248.768 192.62 248.801 192.376 248.866 192.132Z" fill="white"/>
<path d="M250.185 153.223C250.246 153.468 250.295 153.715 250.331 153.964C250.391 154.235 250.374 154.517 250.282 154.778C250.175 155.06 249.986 155.304 249.74 155.478C249.493 155.652 249.2 155.748 248.899 155.755C248.702 155.75 248.507 155.797 248.333 155.889C248.159 155.982 248.012 156.118 247.906 156.284C247.787 156.467 247.717 156.677 247.702 156.894C247.645 157.139 247.621 157.383 247.547 157.635C247.482 157.383 247.45 157.139 247.401 156.894C247.346 156.622 247.372 156.339 247.474 156.08C247.592 155.805 247.789 155.57 248.039 155.405C248.289 155.24 248.583 155.152 248.882 155.153C249.078 155.149 249.27 155.096 249.44 154.998C249.609 154.9 249.751 154.759 249.851 154.591C249.958 154.401 250.022 154.19 250.038 153.972C250.087 153.712 250.12 153.468 250.185 153.223Z" fill="white"/>
<path d="M264.38 127.933C264.446 128.177 264.478 128.421 264.527 128.674C264.584 128.945 264.564 129.227 264.47 129.488C264.363 129.77 264.174 130.014 263.928 130.188C263.681 130.362 263.388 130.458 263.086 130.465C262.889 130.461 262.695 130.507 262.521 130.6C262.347 130.693 262.2 130.828 262.093 130.994C261.979 131.178 261.909 131.388 261.89 131.604C261.841 131.848 261.808 132.093 261.743 132.345C261.67 132.093 261.646 131.848 261.589 131.604C261.539 131.331 261.567 131.048 261.67 130.79C261.79 130.517 261.987 130.284 262.237 130.121C262.487 129.957 262.779 129.87 263.078 129.87C263.273 129.867 263.464 129.814 263.632 129.716C263.8 129.617 263.94 129.477 264.039 129.309C264.152 129.122 264.217 128.909 264.226 128.69C264.283 128.397 264.307 128.177 264.38 127.933Z" fill="white"/>
<path d="M260.571 167.029C260.636 167.281 260.669 167.525 260.718 167.769C260.763 167.985 260.761 168.208 260.71 168.423C260.659 168.637 260.561 168.838 260.423 169.01C260.285 169.182 260.111 169.321 259.913 169.418C259.714 169.514 259.497 169.566 259.277 169.568C259.08 169.565 258.885 169.611 258.712 169.704C258.538 169.796 258.391 169.932 258.284 170.097C258.168 170.281 258.098 170.491 258.08 170.708C258.031 170.952 257.999 171.196 257.934 171.44C257.86 171.196 257.828 170.952 257.779 170.708C257.729 170.434 257.757 170.152 257.86 169.894C257.981 169.62 258.178 169.388 258.428 169.224C258.678 169.061 258.97 168.974 259.269 168.974C259.463 168.969 259.653 168.915 259.821 168.816C259.989 168.718 260.129 168.579 260.229 168.412C260.338 168.22 260.402 168.006 260.416 167.786C260.465 167.525 260.514 167.281 260.571 167.029Z" fill="white"/>
<path d="M294.783 172.287C294.848 172.531 294.88 172.783 294.929 173.028C294.975 173.243 294.972 173.466 294.921 173.68C294.871 173.894 294.773 174.094 294.635 174.266C294.497 174.437 294.322 174.576 294.124 174.671C293.926 174.767 293.708 174.817 293.488 174.818C293.292 174.816 293.098 174.863 292.924 174.956C292.751 175.048 292.603 175.183 292.495 175.347C292.382 175.533 292.312 175.742 292.292 175.958C292.243 176.202 292.21 176.454 292.145 176.699C292.072 176.454 292.048 176.202 291.991 175.958C291.939 175.684 291.968 175.402 292.072 175.144C292.19 174.868 292.386 174.633 292.637 174.468C292.887 174.304 293.18 174.216 293.48 174.216C293.675 174.215 293.867 174.162 294.035 174.064C294.204 173.965 294.344 173.824 294.441 173.654C294.554 173.467 294.619 173.254 294.628 173.036C294.701 172.783 294.701 172.531 294.783 172.287Z" fill="white"/>
<path d="M263.16 216.193C263.225 216.445 263.257 216.689 263.306 216.934C263.355 217.149 263.355 217.372 263.305 217.588C263.256 217.803 263.159 218.004 263.022 218.177C262.884 218.35 262.71 218.489 262.511 218.585C262.312 218.682 262.094 218.732 261.873 218.733C261.676 218.726 261.481 218.772 261.306 218.865C261.132 218.958 260.985 219.094 260.88 219.262C260.763 219.443 260.69 219.649 260.669 219.864C260.632 220.113 260.584 220.36 260.522 220.605C260.457 220.36 260.425 220.116 260.376 219.864C260.321 219.591 260.347 219.309 260.449 219.05C260.566 218.775 260.763 218.54 261.014 218.377C261.264 218.213 261.558 218.127 261.857 218.13C262.053 218.126 262.244 218.072 262.413 217.973C262.583 217.875 262.725 217.736 262.826 217.568C262.931 217.375 262.995 217.161 263.013 216.942C263.062 216.689 263.094 216.445 263.16 216.193Z" fill="white"/>
<path d="M288.914 159.874C289.044 159.654 289.199 159.459 289.337 159.247C289.487 159.012 289.702 158.825 289.956 158.71C290.225 158.592 290.523 158.557 290.813 158.607C291.102 158.658 291.37 158.793 291.584 158.995C291.722 159.137 291.893 159.242 292.082 159.3C292.272 159.358 292.472 159.368 292.666 159.328C292.876 159.279 293.071 159.181 293.236 159.043C293.448 158.897 293.643 158.75 293.871 158.62C293.741 158.848 293.586 159.043 293.448 159.255C293.291 159.486 293.07 159.667 292.813 159.776C292.537 159.882 292.237 159.906 291.948 159.846C291.659 159.785 291.394 159.642 291.185 159.434C291.044 159.3 290.872 159.204 290.684 159.154C290.496 159.104 290.299 159.103 290.11 159.149C289.9 159.21 289.706 159.316 289.541 159.459C289.337 159.597 289.142 159.752 288.914 159.874Z" fill="white"/>
<path d="M268.963 177.952C269.085 177.732 269.24 177.537 269.378 177.325C269.497 177.139 269.655 176.981 269.843 176.864C270.03 176.747 270.242 176.674 270.461 176.65C270.681 176.625 270.903 176.651 271.112 176.724C271.32 176.797 271.51 176.917 271.666 177.073C271.801 177.216 271.971 177.322 272.16 177.379C272.348 177.436 272.548 177.443 272.74 177.399C272.953 177.351 273.151 177.254 273.318 177.114C273.519 176.964 273.729 176.826 273.945 176.699C273.815 176.919 273.668 177.114 273.53 177.325C273.405 177.508 273.242 177.66 273.051 177.771C272.86 177.882 272.647 177.949 272.427 177.967C272.207 177.985 271.985 177.953 271.779 177.875C271.573 177.796 271.387 177.672 271.234 177.513C271.095 177.377 270.923 177.279 270.734 177.229C270.546 177.179 270.348 177.179 270.16 177.228C269.95 177.289 269.755 177.394 269.59 177.537C269.378 177.676 269.183 177.83 268.963 177.952Z" fill="white"/>
<path d="M255.435 204.586C255.565 204.358 255.72 204.162 255.858 203.959C255.976 203.772 256.135 203.614 256.323 203.497C256.51 203.38 256.721 203.307 256.941 203.283C257.161 203.259 257.383 203.284 257.592 203.358C257.8 203.431 257.989 203.55 258.145 203.706C258.282 203.848 258.452 203.952 258.64 204.009C258.828 204.065 259.028 204.074 259.22 204.032C259.432 203.985 259.631 203.887 259.798 203.747C259.999 203.598 260.208 203.459 260.425 203.332C260.294 203.552 260.148 203.747 260.009 203.959C259.886 204.141 259.723 204.293 259.533 204.404C259.343 204.515 259.13 204.582 258.911 204.6C258.691 204.618 258.471 204.586 258.265 204.508C258.059 204.429 257.874 204.306 257.722 204.146C257.581 204.009 257.408 203.911 257.218 203.861C257.029 203.812 256.829 203.811 256.64 203.861C256.429 203.916 256.234 204.019 256.07 204.162C255.858 204.309 255.63 204.455 255.435 204.586Z" fill="white"/>
<path d="M261.279 232.253C261.409 232.033 261.564 231.838 261.702 231.626C261.852 231.391 262.067 231.204 262.321 231.089C262.591 230.973 262.888 230.939 263.177 230.99C263.466 231.04 263.735 231.174 263.949 231.374C264.085 231.516 264.255 231.622 264.443 231.68C264.631 231.739 264.831 231.748 265.024 231.707C265.237 231.657 265.435 231.556 265.601 231.414C265.805 231.276 266 231.13 266.228 230.999C266.098 231.227 265.951 231.423 265.813 231.626C265.654 231.86 265.431 232.044 265.17 232.155C264.895 232.261 264.594 232.285 264.306 232.225C264.017 232.164 263.752 232.021 263.542 231.813C263.401 231.679 263.229 231.583 263.041 231.533C262.854 231.483 262.656 231.482 262.468 231.528C262.258 231.589 262.063 231.695 261.898 231.838C261.702 231.976 261.507 232.131 261.279 232.253Z" fill="white"/>
<path d="M287.449 201.842C287.571 201.623 287.725 201.427 287.864 201.216C288.016 200.983 288.23 200.796 288.482 200.678C288.757 200.554 289.063 200.515 289.36 200.566C289.658 200.617 289.933 200.755 290.151 200.963C290.287 201.106 290.457 201.211 290.645 201.27C290.833 201.328 291.033 201.338 291.226 201.297C291.437 201.246 291.634 201.149 291.803 201.012C292.007 200.874 292.202 200.719 292.43 200.589C292.3 200.817 292.154 201.012 292.015 201.224C291.857 201.458 291.634 201.639 291.372 201.745C291.097 201.853 290.796 201.878 290.507 201.817C290.218 201.757 289.952 201.613 289.744 201.403C289.602 201.269 289.428 201.173 289.239 201.123C289.05 201.073 288.851 201.071 288.662 201.118C288.452 201.179 288.257 201.284 288.092 201.427C287.864 201.566 287.668 201.72 287.449 201.842Z" fill="white"/>
<path d="M305.454 212.864C305.576 212.644 305.731 212.449 305.869 212.237C306.023 212.006 306.237 211.82 306.488 211.7C306.757 211.584 307.055 211.55 307.344 211.601C307.633 211.651 307.901 211.785 308.116 211.985C308.252 212.127 308.422 212.232 308.61 212.29C308.798 212.348 308.997 212.358 309.19 212.318C309.402 212.269 309.6 212.172 309.768 212.034C309.98 211.895 310.175 211.741 310.395 211.61C310.273 211.838 310.118 212.034 309.98 212.245C309.824 212.481 309.599 212.663 309.337 212.766C309.061 212.874 308.761 212.9 308.471 212.839C308.182 212.778 307.917 212.634 307.709 212.424C307.566 212.29 307.393 212.194 307.204 212.144C307.014 212.094 306.816 212.093 306.626 212.139C306.416 212.2 306.222 212.306 306.056 212.449C305.869 212.587 305.674 212.742 305.454 212.864Z" fill="white"/>
<path d="M275.166 221.231C275.288 221.012 275.443 220.816 275.581 220.605C275.731 220.369 275.946 220.183 276.2 220.067C276.474 219.943 276.78 219.904 277.077 219.955C277.375 220.006 277.65 220.144 277.868 220.352C278.004 220.495 278.174 220.6 278.362 220.659C278.55 220.717 278.75 220.727 278.943 220.686C279.156 220.635 279.354 220.535 279.521 220.393C279.724 220.255 279.919 220.108 280.147 219.978C280.017 220.206 279.871 220.401 279.732 220.605C279.575 220.841 279.351 221.025 279.089 221.134C278.814 221.242 278.513 221.267 278.224 221.206C277.935 221.146 277.67 221.002 277.461 220.792C277.319 220.658 277.145 220.562 276.956 220.512C276.767 220.462 276.568 220.46 276.379 220.507C276.169 220.568 275.974 220.673 275.809 220.816C275.581 220.955 275.386 221.109 275.166 221.231Z" fill="white"/>
<path d="M314.237 232.253C314.367 232.033 314.513 231.838 314.652 231.626C314.804 231.393 315.018 231.207 315.27 231.089C315.545 230.965 315.851 230.925 316.148 230.976C316.446 231.027 316.721 231.165 316.939 231.374C317.075 231.516 317.245 231.621 317.433 231.679C317.621 231.737 317.821 231.747 318.014 231.707C318.226 231.658 318.423 231.561 318.592 231.423C318.803 231.276 318.998 231.129 319.218 230.999C319.096 231.227 318.942 231.423 318.803 231.634C318.646 231.865 318.426 232.046 318.168 232.155C317.893 232.262 317.592 232.287 317.303 232.226C317.014 232.166 316.749 232.022 316.54 231.813C316.399 231.68 316.227 231.584 316.039 231.534C315.852 231.484 315.654 231.482 315.466 231.528C315.253 231.587 315.055 231.693 314.888 231.838C314.644 231.976 314.448 232.131 314.237 232.253Z" fill="white"/>
<path d="M318.64 202.469C318.762 202.241 318.917 202.046 319.055 201.834C319.21 201.603 319.423 201.417 319.674 201.297C319.949 201.173 320.255 201.134 320.552 201.185C320.849 201.235 321.125 201.374 321.343 201.582C321.479 201.724 321.649 201.829 321.837 201.887C322.025 201.946 322.224 201.956 322.417 201.916C322.629 201.867 322.827 201.769 322.995 201.631C323.207 201.493 323.402 201.338 323.622 201.208C323.5 201.436 323.345 201.631 323.207 201.843C323.051 202.078 322.826 202.26 322.564 202.363C322.289 202.472 321.988 202.497 321.699 202.436C321.409 202.375 321.144 202.231 320.936 202.022C320.795 201.888 320.622 201.792 320.435 201.743C320.247 201.693 320.05 201.691 319.861 201.737C319.648 201.796 319.451 201.901 319.283 202.046C319.055 202.193 318.86 202.347 318.64 202.469Z" fill="white"/>
<path d="M247.287 225.049C247.417 224.821 247.564 224.626 247.702 224.414C247.856 224.183 248.07 223.997 248.321 223.877C248.596 223.753 248.901 223.713 249.199 223.764C249.496 223.815 249.771 223.953 249.989 224.162C250.126 224.304 250.296 224.409 250.484 224.467C250.671 224.525 250.871 224.535 251.064 224.495C251.276 224.446 251.473 224.349 251.642 224.211C251.853 224.072 252.049 223.918 252.268 223.787C252.146 224.015 251.992 224.211 251.853 224.422C251.699 224.655 251.477 224.837 251.218 224.943C250.943 225.05 250.643 225.075 250.354 225.014C250.065 224.954 249.799 224.81 249.59 224.601C249.45 224.467 249.277 224.372 249.089 224.323C248.901 224.275 248.704 224.275 248.516 224.324C248.302 224.377 248.104 224.48 247.938 224.626C247.702 224.764 247.49 224.919 247.287 225.049Z" fill="white"/>
<path d="M245.048 178.579C245.171 178.359 245.325 178.164 245.464 177.952C245.617 177.718 245.831 177.53 246.082 177.407C246.358 177.284 246.664 177.246 246.961 177.298C247.259 177.35 247.534 177.49 247.751 177.7C247.887 177.842 248.057 177.947 248.245 178.004C248.434 178.061 248.633 178.068 248.825 178.025C249.04 177.983 249.239 177.885 249.403 177.74C249.615 177.602 249.81 177.447 250.03 177.325C249.903 177.542 249.764 177.751 249.615 177.952C249.458 178.186 249.238 178.369 248.98 178.481C248.705 178.588 248.404 178.613 248.115 178.552C247.826 178.492 247.561 178.348 247.352 178.139C247.212 178.004 247.04 177.907 246.852 177.857C246.664 177.807 246.466 177.806 246.278 177.854C246.064 177.913 245.867 178.019 245.7 178.164C245.472 178.302 245.276 178.457 245.048 178.579Z" fill="white"/>
<path d="M271.609 116.578C271.307 118.1 264.437 128.12 257.535 128.031C255.288 127.99 254.93 115.715 254.93 115.715L254.694 114.82L251.438 102.22L266.033 92.1506L268.149 90.8157C268.149 90.8157 268.809 94.3239 269.598 98.695C269.598 98.8985 269.671 99.102 269.704 99.3218C269.736 99.5416 269.81 99.7939 269.842 100.03C269.972 100.681 270.095 101.349 270.209 102.016C270.298 102.521 270.379 103.009 270.453 103.546C270.526 104.084 270.607 104.605 270.697 105.174C271.26 108.95 271.565 112.761 271.609 116.578Z" fill="#DD6A57"/>
<path d="M269.598 98.695C268.432 102.303 266.495 105.614 263.922 108.398C261.348 111.183 258.199 113.374 254.694 114.82L251.438 102.22L266.033 92.1506L268.149 90.8157C268.149 90.8157 268.809 94.3239 269.598 98.695Z" fill="#263238"/>
<path d="M233.547 83.5063C232.945 106.347 246.571 109.285 251.454 109.407C255.923 109.521 271.161 109.342 274.124 86.689C277.087 64.0359 266.651 56.5717 256.444 55.7578C246.237 54.9438 234.149 60.6661 233.547 83.5063Z" fill="#DD6A57"/>
<path d="M237.015 76.5956C237.552 76.5061 238.024 76.3433 238.545 76.2049C239.101 76.137 239.621 75.8915 240.026 75.5049C240.13 75.3581 240.182 75.1811 240.175 75.0014C240.168 74.8218 240.101 74.6496 239.986 74.5118C239.715 74.2754 239.385 74.1153 239.032 74.0481C238.679 73.9809 238.314 74.0089 237.975 74.1292C237.254 74.2655 236.609 74.6661 236.168 75.2525C236.076 75.3923 236.025 75.5558 236.024 75.7234C236.022 75.891 236.068 76.0556 236.158 76.1974C236.247 76.3391 236.375 76.4521 236.527 76.5228C236.679 76.5934 236.849 76.6187 237.015 76.5956Z" fill="#263238"/>
<path d="M252.285 79.9329C251.759 79.8752 251.238 79.7882 250.722 79.6724C250.164 79.6573 249.627 79.46 249.192 79.1108C249.075 78.9739 249.007 78.8022 248.998 78.6226C248.989 78.4429 249.04 78.2654 249.143 78.1177C249.392 77.8576 249.705 77.6685 250.052 77.5697C250.398 77.471 250.764 77.4663 251.113 77.5561C251.843 77.6312 252.52 77.9767 253.009 78.5247C253.116 78.6548 253.182 78.8133 253.2 78.9807C253.218 79.1481 253.186 79.317 253.109 79.4667C253.032 79.6164 252.913 79.7403 252.767 79.8231C252.62 79.9059 252.453 79.9441 252.285 79.9329Z" fill="#263238"/>
<path d="M240.384 84.0273C240.384 83.9703 240.27 84.1087 240.27 84.1738C240.425 85.7204 240.344 87.5193 238.976 88.1298C238.927 88.1298 238.976 88.2274 238.976 88.2193C240.686 87.8612 240.775 85.4681 240.384 84.0273Z" fill="#263238"/>
<path d="M238.887 82.497C236.38 82.497 236.518 87.4948 238.846 87.5192C241.174 87.5436 240.979 82.5214 238.887 82.497Z" fill="#263238"/>
<path d="M237.853 82.8631C237.462 83.1399 237.088 83.6283 236.608 83.6771C236.127 83.7259 235.639 83.1968 235.273 82.684C235.273 82.6352 235.199 82.684 235.199 82.741C235.199 83.7015 235.549 84.6946 236.469 84.8492C237.389 85.0039 237.91 84.1573 238.097 83.2213C238.154 83.0178 238.008 82.7492 237.853 82.8631Z" fill="#263238"/>
<path d="M250.6 97.3193C250.217 97.6693 249.827 98.1333 249.257 98.1903C248.688 98.1525 248.134 97.9973 247.629 97.7345C247.618 97.7291 247.605 97.7274 247.593 97.7298C247.581 97.7321 247.57 97.7384 247.562 97.7476C247.553 97.7568 247.548 97.7684 247.547 97.7807C247.546 97.793 247.549 97.8054 247.556 97.8159C247.768 98.1308 248.062 98.3821 248.406 98.5427C248.75 98.7033 249.131 98.7672 249.509 98.7275C249.831 98.6593 250.124 98.4952 250.351 98.257C250.578 98.0187 250.727 97.7173 250.779 97.3926C250.746 97.3031 250.657 97.2705 250.6 97.3193Z" fill="#263238"/>
<path d="M242.818 91.0764C242.818 91.0764 242.639 93.4043 242.696 94.4951C244.828 94.378 246.966 94.5644 249.045 95.0486C249.533 95.1788 249.501 94.78 248.947 94.4869C247.299 93.6278 245.43 93.282 243.583 93.4939C243.486 93.1927 243.933 89.9124 243.762 89.9124C242.921 90.0359 242.1 90.2713 241.32 90.6124C241.565 85.7285 242.59 80.9749 242.761 76.1317C242.764 76.0962 242.753 76.0611 242.731 76.0329C242.71 76.0046 242.679 75.9852 242.644 75.9783C242.609 75.9713 242.573 75.9772 242.542 75.995C242.511 76.0127 242.488 76.0411 242.476 76.0747C241.044 81.0156 240.637 86.5995 240.254 91.6136C240.205 92.2322 242.395 91.288 242.818 91.0764Z" fill="#263238"/>
<path d="M253.685 84.1084C252.771 83.75 251.771 83.6707 250.811 83.8805C250.297 83.9974 249.811 84.213 249.379 84.5154C248.934 84.8478 248.569 85.2763 248.313 85.769L247.832 86.6562L248.817 86.5504C249.51 86.477 250.208 86.477 250.901 86.5504C251.624 86.6136 252.319 86.8601 252.92 87.2667C252.526 86.5476 251.865 86.0125 251.08 85.7771C250.315 85.5242 249.506 85.4327 248.703 85.5085L249.208 86.3225C249.629 85.6161 250.278 85.0737 251.048 84.784C251.895 84.4502 252.781 84.2233 253.685 84.1084Z" fill="#263238"/>
<path d="M250.86 88.1541C250.123 87.9811 249.414 87.7072 248.752 87.3401C248.597 87.2425 248.003 86.7948 248.036 86.6645C248.12 86.286 248.251 85.9196 248.426 85.5738C248.153 85.8811 247.945 86.2413 247.816 86.632C247.861 86.8472 247.954 87.0498 248.086 87.2256C248.218 87.4013 248.387 87.546 248.581 87.6495C249.281 88.0212 250.069 88.1956 250.86 88.1541Z" fill="#263238"/>
<path d="M245.455 94.3321C245.455 94.3321 246.872 96.3671 248.5 96.6113C250.372 96.9043 250.592 95.2193 248.5 94.2589C247.442 93.7623 245.455 94.3321 245.455 94.3321Z" fill="#263238"/>
<path d="M248.492 96.6517C247.782 96.5044 247.13 96.157 246.611 95.6505C247.002 95.0726 247.897 94.4296 249.908 95.5122C250.201 96.1959 249.68 96.7982 248.492 96.6517Z" fill="#FF99BA"/>
<path d="M273.985 87.2343C270.225 87.7064 268.971 79.8352 268.971 79.8352C268.971 79.8352 261.304 80.2259 258.235 69.3186C258.616 72.6138 259.951 75.7259 262.077 78.2724C262.077 78.2724 248.475 77.4584 242.232 66.4453C242.232 66.4453 244.788 72.1024 247.018 74.0478C247.018 74.0478 241.263 72.7455 238.276 68.2686C238.276 68.2686 236.225 74.9188 234.491 76.8154C234.491 76.8154 233.897 53.1204 255.948 54.5693C255.948 54.5693 269.72 54.8135 275.182 65.4441C280.644 76.0746 273.985 87.2343 273.985 87.2343Z" fill="#263238"/>
<path d="M270.469 88.341C270.469 88.341 275.019 80.9257 278.357 82.5048C281.694 84.0839 278.568 94.6331 274.865 96.2692C274.404 96.5128 273.899 96.6607 273.38 96.7038C272.861 96.7469 272.338 96.6845 271.844 96.5202C271.349 96.3559 270.893 96.0932 270.503 95.7479C270.113 95.4025 269.797 94.9818 269.574 94.511L270.469 88.341Z" fill="#DD6A57"/>
<path d="M277.388 85.5085C277.445 85.5085 277.461 85.5818 277.388 85.6062C274.791 86.8434 273.546 89.3912 272.716 92.0122C273.448 90.9784 274.49 90.3842 275.866 91.1982C275.939 91.2389 275.866 91.3529 275.801 91.3447C275.325 91.2227 274.823 91.252 274.365 91.4286C273.907 91.6051 273.515 91.9201 273.245 92.3297C272.789 93.012 272.412 93.7438 272.121 94.5111C272.008 94.7553 271.576 94.6576 271.649 94.3809C271.645 94.3594 271.645 94.3372 271.649 94.3158C271.421 90.954 273.766 86.0701 277.388 85.5085Z" fill="#263238"/>
<path d="M272.724 95.0811C272.735 95.2919 272.809 95.4944 272.936 95.6631C273.063 95.8318 273.237 95.9591 273.437 96.0288C273.636 96.0984 273.851 96.1074 274.056 96.0545C274.26 96.0016 274.444 95.8893 274.584 95.7317C274.725 95.5741 274.815 95.3784 274.845 95.1693C274.874 94.9602 274.84 94.7472 274.748 94.5573C274.656 94.3673 274.51 94.2089 274.328 94.1022C274.145 93.9955 273.936 93.9452 273.725 93.9578C273.585 93.965 273.448 94 273.322 94.0605C273.196 94.121 273.083 94.206 272.99 94.3105C272.897 94.4149 272.825 94.5368 272.78 94.6691C272.734 94.8014 272.715 94.9414 272.724 95.0811Z" fill="white"/>
<path d="M275.28 93.3145C275.286 93.4498 275.333 93.5801 275.414 93.6888C275.495 93.7975 275.606 93.8798 275.734 93.9251C275.862 93.9704 276 93.9768 276.131 93.9434C276.262 93.91 276.381 93.8383 276.471 93.7375C276.562 93.6367 276.62 93.5112 276.639 93.3771C276.659 93.2429 276.637 93.1061 276.579 92.9841C276.52 92.862 276.426 92.7601 276.309 92.6914C276.193 92.6227 276.058 92.5903 275.923 92.5982C275.833 92.6023 275.745 92.6242 275.665 92.6626C275.584 92.701 275.511 92.7551 275.451 92.8217C275.391 92.8884 275.345 92.9663 275.316 93.0509C275.286 93.1354 275.274 93.225 275.28 93.3145Z" fill="white"/>
<path d="M201.208 137.737L189.387 140.484L197.89 177.083L209.712 174.336L201.208 137.737Z" fill="#EBEBEB"/>
<path d="M172.393 40.5931C162.516 42.891 153.542 48.0655 146.606 55.4625C139.67 62.8594 135.082 72.1468 133.423 82.1506C131.764 92.1544 133.109 102.426 137.286 111.665C141.463 120.905 148.287 128.699 156.893 134.062C165.499 139.425 175.502 142.116 185.637 141.795C195.773 141.474 205.585 138.155 213.835 132.258C222.084 126.361 228.4 118.15 231.984 108.664C235.568 99.1784 236.259 88.8428 233.97 78.9641C232.449 72.3999 229.649 66.1998 225.731 60.7182C221.812 55.2366 216.852 50.581 211.133 47.0174C205.415 43.4539 199.05 41.0524 192.402 39.95C185.755 38.8477 178.956 39.0663 172.393 40.5931ZM193.165 130.025C185.362 131.84 177.195 131.3 169.699 128.473C162.202 125.646 155.712 120.66 151.05 114.144C146.388 107.628 143.762 99.8765 143.506 91.8686C143.25 83.8608 145.375 75.957 149.612 69.1568C153.848 62.3567 160.006 56.9658 167.307 53.6659C174.608 50.366 182.723 49.3055 190.627 50.6185C198.531 51.9315 205.867 55.5589 211.709 61.0421C217.551 66.5252 221.635 73.6177 223.445 81.4223C225.872 91.8826 224.045 102.878 218.367 111.992C212.689 121.106 203.624 127.592 193.165 130.025Z" fill="#A6A6A6"/>
<path d="M205.243 163.979L197.314 165.821C194.569 166.459 192.86 169.202 193.498 171.948L203.639 215.595C204.277 218.34 207.02 220.049 209.765 219.411L217.694 217.569C220.439 216.931 222.148 214.188 221.51 211.443L211.369 167.796C210.731 165.05 207.988 163.341 205.243 163.979Z" fill="#263238"/>
<g opacity="0.3">
<path d="M223.445 81.4061C225.255 89.2077 224.71 97.3706 221.881 104.863C219.051 112.355 214.064 118.84 207.549 123.498C201.034 128.155 193.284 130.777 185.279 131.03C177.275 131.284 169.375 129.158 162.578 124.922C155.781 120.686 150.393 114.53 147.095 107.232C143.797 99.9341 142.737 91.8221 144.049 83.9216C145.36 76.0211 148.985 68.687 154.465 62.8466C159.945 57.0062 167.034 52.9218 174.835 51.1098C180.016 49.9052 185.384 49.7334 190.631 50.6042C195.879 51.475 200.903 53.3714 205.418 56.185C209.932 58.9986 213.848 62.6741 216.941 67.0017C220.035 71.3293 222.245 76.224 223.445 81.4061Z" fill="white"/>
<path d="M224.439 92.8181C223.841 103.479 219.059 113.473 211.133 120.627C203.207 127.782 192.778 131.519 182.112 131.026L224.439 92.8181Z" fill="#EBEBEB"/>
<path d="M205.806 56.4412L147.827 108.772C146.384 105.898 145.291 102.862 144.571 99.7286C143.727 96.1384 143.387 92.4482 143.561 88.7643L186.369 50.1247C193.282 50.5315 199.975 52.7064 205.806 56.4412Z" fill="#EBEBEB"/>
<path d="M222.33 77.5232L167.102 127.363C164.688 126.254 162.39 124.91 160.24 123.35L219.05 70.2788C220.386 72.5761 221.485 75.0034 222.33 77.5232Z" fill="#EBEBEB"/>
<path d="M210.259 59.7461L150.627 113.55C150.35 113.143 150.073 112.736 149.813 112.321L209.103 58.8182C209.51 59.1112 209.893 59.4124 210.259 59.7461Z" fill="#EBEBEB"/>
<path d="M172.865 51.6226L146.41 75.4884C146.858 74.357 147.363 73.25 147.916 72.1755L169.43 52.754C170.545 52.3389 171.693 51.9563 172.865 51.6226Z" fill="#EBEBEB"/>
</g>
<path d="M155.25 97.5717C155.246 97.5175 155.246 97.4631 155.25 97.4089C155.104 96.5949 155.356 98.1821 155.25 97.6531C155.144 97.124 155.088 96.3995 155.039 95.7728C154.851 93.5627 154.851 91.3408 155.039 89.1307C155.039 88.8132 155.096 88.5039 155.12 88.1946C155.12 88.0969 155.031 88.9272 155.12 88.2679L155.193 87.6981C155.291 86.9655 155.413 86.2329 155.56 85.5085C155.868 83.9113 156.284 82.3368 156.805 80.7956C156.927 80.4293 157.065 80.063 157.196 79.6967C157.367 79.2002 156.968 80.242 157.236 79.5909L157.505 78.9478C157.855 78.1338 158.238 77.3199 158.645 76.5059C159.052 75.6919 159.581 74.8209 160.093 74.0151C160.338 73.6407 160.582 73.2744 160.834 72.9081C161.266 72.2813 160.631 73.1604 160.964 72.7209L161.445 72.086C162.927 70.2226 164.584 68.5054 166.394 66.9579C166.394 66.9579 166.768 66.6567 166.491 66.8846C166.215 67.1126 166.638 66.7625 166.687 66.7218L167.501 66.0788C168.046 65.6718 168.6 65.2648 169.169 64.9067C170.363 64.1089 171.596 63.3727 172.865 62.7008C173.205 62.487 173.499 62.2084 173.731 61.8808C173.964 61.5532 174.129 61.183 174.218 60.7915C174.307 60.4 174.319 59.9947 174.251 59.5989C174.184 59.203 174.039 58.8243 173.825 58.4844C173.612 58.1445 173.333 57.85 173.005 57.6177C172.678 57.3855 172.308 57.2201 171.916 57.1309C171.524 57.0417 171.119 57.0305 170.723 57.0979C170.328 57.1654 169.949 57.3101 169.609 57.5239C161.567 61.8135 154.957 68.5859 151.636 77.1245C149.388 82.8667 148.429 89.0329 148.828 95.1867C148.909 96.5536 149.083 97.9133 149.349 99.2566C149.581 100.031 150.11 100.683 150.821 101.069C151.531 101.455 152.366 101.544 153.142 101.316C153.905 101.065 154.544 100.531 154.927 99.8244C155.31 99.1177 155.408 98.2914 155.201 97.5147L155.25 97.5717Z" fill="white"/>
<path d="M157.953 106.232C158.121 106.8 158.117 107.405 157.942 107.971C157.767 108.537 157.428 109.038 156.968 109.411C156.508 109.784 155.948 110.012 155.358 110.067C154.768 110.122 154.175 110 153.655 109.718C153.134 109.436 152.708 109.006 152.432 108.482C152.155 107.959 152.04 107.365 152.101 106.776C152.162 106.187 152.397 105.629 152.775 105.173C153.153 104.717 153.657 104.383 154.225 104.214C154.602 104.1 154.998 104.062 155.39 104.102C155.782 104.142 156.162 104.26 156.509 104.447C156.855 104.635 157.161 104.889 157.409 105.196C157.657 105.502 157.842 105.854 157.953 106.232Z" fill="white"/>
<path d="M287.481 131.897C294.807 158.384 298.323 184.977 294.27 198.692C291.681 207.435 285.438 213.344 281.466 215.298C272.178 219.888 241.369 213.377 221.297 209.339C216.364 208.346 227.996 168.6 232.953 170.708C240.279 173.809 262.704 177.993 263.322 178.196C264.649 178.652 267.392 149.911 269.329 133.061C272.007 109.586 283.257 116.603 287.481 131.897Z" fill="#DD6A57"/>
<path d="M182.722 163.138C180.541 166.695 183.373 169.951 183.373 169.951C181.514 170.881 180.039 172.433 179.206 174.338C177.895 177.757 182.681 181.314 182.681 181.314C180.954 182.679 179.68 184.535 179.027 186.637C178.099 190.04 182.421 194.313 182.421 194.313C181.528 196.444 181.433 198.825 182.152 201.02C184.309 206.808 193.548 208.704 199.409 209.974C205.269 211.244 223.079 209.323 226.514 209.307L234.939 171.758C234.939 171.758 210.267 158.612 203.194 158.107C197.178 157.7 185.172 159.149 182.722 163.138Z" fill="#DD6A57"/>
<path d="M183.764 169.406C190.276 168.339 196.674 169.235 203.145 169.764C203.175 169.764 203.204 169.776 203.225 169.797C203.247 169.818 203.259 169.847 203.259 169.878C203.259 169.908 203.247 169.937 203.225 169.958C203.204 169.98 203.175 169.992 203.145 169.992C196.706 169.389 190.235 170.065 183.797 169.723C183.759 169.719 183.724 169.703 183.698 169.676C183.671 169.65 183.654 169.615 183.65 169.578C183.647 169.54 183.656 169.503 183.676 169.471C183.697 169.44 183.728 169.417 183.764 169.406Z" fill="#263238"/>
<path d="M182.917 180.85C184.41 180.746 185.91 180.842 187.378 181.135C188.946 181.341 190.512 181.574 192.075 181.835C195.206 182.378 198.321 182.977 201.419 183.634C201.558 183.634 201.549 183.878 201.419 183.854C198.293 183.341 195.168 182.877 192.034 182.494C190.463 182.299 188.892 182.128 187.313 181.957C185.819 181.896 184.337 181.67 182.893 181.281C182.849 181.264 182.811 181.232 182.785 181.192C182.76 181.152 182.747 181.105 182.75 181.057C182.753 181.009 182.77 180.964 182.8 180.927C182.83 180.889 182.871 180.863 182.917 180.85Z" fill="#263238"/>
<path d="M182.551 194.329C183.821 194.11 185.302 194.566 186.556 194.802C187.98 195.07 189.397 195.323 190.821 195.575C193.67 196.08 196.519 196.576 199.384 196.983C199.523 196.983 199.506 197.227 199.384 197.203C196.47 196.812 193.556 196.454 190.65 196.039C189.226 195.835 187.793 195.616 186.369 195.396C185.156 195.209 183.626 195.111 182.543 194.476C182.53 194.469 182.519 194.458 182.511 194.444C182.504 194.431 182.5 194.415 182.501 194.4C182.502 194.385 182.507 194.37 182.516 194.358C182.525 194.345 182.537 194.335 182.551 194.329Z" fill="#263238"/>
<path d="M190.764 159.247C187.809 159.63 184.423 160.281 182.51 162.796C181.626 163.863 181.191 165.232 181.298 166.614C181.466 167.904 182.118 169.082 183.121 169.91C181.94 170.291 180.89 170.997 180.093 171.947C179.295 172.897 178.782 174.053 178.612 175.282C178.562 175.898 178.64 176.517 178.84 177.101C179.04 177.685 179.359 178.221 179.776 178.677C180.182 179.157 180.646 179.58 181.094 180.02C181.542 180.459 182.038 180.834 182.502 181.216C182.001 181.608 181.53 182.038 181.094 182.502C180.606 182.972 180.166 183.49 179.784 184.049C178.991 185.156 178.544 186.473 178.498 187.834C178.565 189.186 179.036 190.487 179.849 191.57C180.51 192.69 181.442 193.625 182.559 194.289C182.573 194.296 182.589 194.297 182.604 194.293C182.619 194.289 182.632 194.28 182.641 194.267C182.65 194.255 182.654 194.239 182.653 194.224C182.651 194.208 182.644 194.194 182.633 194.183C181.754 193.381 181.009 192.444 180.427 191.407C179.723 190.301 179.337 189.023 179.312 187.712C179.419 186.469 179.839 185.273 180.533 184.236C180.877 183.674 181.252 183.13 181.656 182.608C182.058 182.181 182.433 181.73 182.779 181.257C182.779 181.257 181.81 180.231 181.469 179.792C181.127 179.352 180.793 178.88 180.484 178.4C179.828 177.489 179.538 176.365 179.67 175.25C179.862 174.209 180.335 173.241 181.037 172.45C181.721 171.636 182.608 170.993 183.324 170.195C183.35 170.153 183.367 170.106 183.374 170.057C183.381 170.008 183.378 169.958 183.365 169.91C181.737 167.371 181.941 164.961 183.683 163.081C184.57 162.169 185.608 161.417 186.751 160.859C188.067 160.261 189.428 159.768 190.821 159.385C190.878 159.377 190.854 159.239 190.764 159.247Z" fill="#263238"/>
<path d="M244.731 213.938C242.997 213.401 241.166 213.124 239.391 212.734C237.617 212.343 235.826 211.977 234.035 211.618C232.245 211.26 230.381 210.902 228.557 210.56C226.734 210.218 225.033 209.836 223.258 209.624C221.545 209.459 219.818 209.497 218.114 209.738C216.394 209.933 214.668 210.072 212.937 210.153C209.449 210.322 205.954 210.245 202.477 209.925C198.543 209.56 194.647 208.866 190.829 207.85C190.748 207.85 190.723 207.947 190.829 207.972C197.449 210.181 204.388 211.282 211.366 211.228C213.092 211.228 214.825 211.122 216.543 210.951C218.259 210.707 219.987 210.56 221.72 210.511C223.552 210.632 225.37 210.905 227.157 211.325C228.956 211.659 230.747 212.001 232.546 212.318C234.581 212.677 236.616 213.043 238.659 213.36C240.702 213.678 242.729 214.134 244.731 214.28C244.878 214.248 244.886 213.979 244.731 213.938Z" fill="#263238"/>
<path d="M270.013 179.841C267.409 178.953 264.657 178.4 261.979 177.757C259.301 177.114 256.591 176.495 253.896 175.885C248.752 174.721 243.543 173.736 238.431 172.311C237.088 171.937 235.761 171.497 234.45 171.058C233.791 170.822 233.148 170.561 232.505 170.244C231.862 169.926 231.121 169.731 230.486 169.43C230.413 169.381 230.356 169.495 230.429 169.544C230.942 169.861 231.414 170.244 231.943 170.553C232.473 170.862 233.116 171.172 233.718 171.449C234.819 171.952 235.947 172.395 237.096 172.775C239.489 173.589 241.98 174.151 244.422 174.721C249.794 175.95 255.174 177.163 260.563 178.327C262.077 178.652 263.599 178.978 265.121 179.279C266.643 179.58 268.304 179.955 269.916 180.134C269.954 180.144 269.995 180.14 270.029 180.121C270.064 180.102 270.091 180.071 270.103 180.033C270.116 179.996 270.114 179.955 270.097 179.919C270.08 179.883 270.05 179.855 270.013 179.841Z" fill="#263238"/>
<path d="M261.54 169.991L298.771 175.054C298.771 175.054 291.966 136.35 284.73 123.529C277.591 110.88 269.712 119.24 266.708 134.543C263.339 151.506 261.54 169.991 261.54 169.991Z" fill="url(#paint5_linear_104_4303)"/>
<path d="M295.979 169.446C294.937 169.202 293.871 169.047 292.829 168.819C291.787 168.592 290.786 168.437 289.76 168.274C287.668 167.948 285.568 167.655 283.468 167.371C279.333 166.801 275.206 166.174 271.055 165.743C268.695 165.482 266.342 165.132 263.982 164.929C263.964 164.929 263.948 164.935 263.936 164.948C263.923 164.96 263.916 164.976 263.916 164.994C263.916 165.011 263.923 165.028 263.936 165.04C263.948 165.052 263.964 165.059 263.982 165.059C268.092 166.019 272.284 166.736 276.452 167.411C280.619 168.087 284.722 168.722 288.873 169.178C290.037 169.3 291.201 169.454 292.373 169.511C293.545 169.568 294.774 169.674 295.971 169.699C296.004 169.7 296.037 169.687 296.061 169.664C296.086 169.642 296.1 169.61 296.101 169.576C296.102 169.543 296.09 169.51 296.067 169.486C296.044 169.462 296.013 169.447 295.979 169.446Z" fill="#263238"/>
<path d="M316.378 29.0186C315.9 33.5976 314.159 37.9538 311.349 41.601C308.539 45.2481 304.771 48.0427 300.466 49.673C296.16 51.3032 291.486 51.7049 286.966 50.8332C282.445 49.9615 278.255 47.8508 274.865 44.7365L262.427 46.568L268.654 35.8153C267.226 32.3156 266.615 28.5363 266.867 24.7648C267.119 20.9934 268.228 17.3292 270.11 14.0508C271.991 10.7724 274.595 7.96626 277.724 5.84569C280.853 3.72513 284.425 2.34602 288.167 1.81325C291.909 1.28049 295.723 1.6081 299.32 2.77116C302.916 3.93422 306.2 5.90211 308.922 8.52516C311.643 11.1482 313.731 14.3574 315.026 17.9085C316.32 21.4597 316.788 25.2594 316.394 29.0186H316.378Z" fill="white"/>
<path d="M316.378 29.0184C315.901 33.6009 314.166 37.962 311.363 41.6188C309.987 43.4594 308.341 45.0813 306.48 46.4294C302.781 49.2053 298.392 50.9117 293.79 51.3622C292.642 51.4694 291.489 51.4911 290.338 51.4273C289.186 51.402 288.037 51.2822 286.903 51.0691C282.32 50.2296 278.061 48.1297 274.604 45.005L274.897 45.0945L262.484 46.9992L261.58 47.1376L262.036 46.3236L268.223 35.5547V35.978C266.415 31.5301 265.918 26.6579 266.79 21.9367C267.662 17.2155 269.867 12.8423 273.144 9.3335C276.42 5.82466 280.633 3.32664 285.284 2.13436C289.934 0.942075 294.829 1.10531 299.39 2.60479C302.981 3.82515 306.255 5.83311 308.97 8.48173C311.68 11.1198 313.755 14.3394 315.039 17.8972C316.322 21.4549 316.78 25.2578 316.378 29.0184ZM316.378 29.0184C316.77 25.2785 316.299 21.4985 315.001 17.9692C313.703 14.4398 311.612 11.2554 308.89 8.66081C306.168 6.06623 302.888 4.13071 299.3 3.0032C295.713 1.87568 291.914 1.58623 288.198 2.15711C284.508 2.71275 280.994 4.10487 277.925 6.22701C274.885 8.36749 272.349 11.1453 270.494 14.3668C268.66 17.5889 267.581 21.1844 267.335 24.8834C267.11 28.5771 267.707 32.2749 269.085 35.7093L269.175 35.9373L269.061 36.1407L262.801 46.869L262.354 46.2097L274.799 44.4678H274.97L275.093 44.5817C278.417 47.689 282.54 49.8111 287.001 50.711C288.112 50.9388 289.238 51.0776 290.371 51.1261C291.504 51.2034 292.641 51.2034 293.773 51.1261C296.042 50.9492 298.275 50.4561 300.407 49.6609C302.557 48.8787 304.579 47.7814 306.406 46.405C307.326 45.7315 308.201 45.0001 309.027 44.2154C309.833 43.4074 310.589 42.5511 311.29 41.6514C314.124 37.993 315.885 33.6194 316.378 29.0184Z" fill="#263238"/>
<path d="M279.504 38.0454C279.489 37.7153 279.541 37.3855 279.656 37.0759C279.772 36.7664 279.95 36.4835 280.178 36.2446C280.406 36.0056 280.681 35.8155 280.985 35.6857C281.289 35.5559 281.616 35.4892 281.946 35.4895C282.624 35.4895 283.274 35.7588 283.754 36.2381C284.233 36.7175 284.502 37.3676 284.502 38.0454C284.502 38.7233 284.233 39.3734 283.754 39.8527C283.274 40.332 282.624 40.6013 281.946 40.6013C281.616 40.6017 281.289 40.535 280.985 40.4052C280.681 40.2754 280.406 40.0853 280.178 39.8463C279.95 39.6073 279.772 39.3245 279.656 39.0149C279.541 38.7054 279.489 38.3756 279.504 38.0454ZM280.538 32.1522L279.96 12.3644H283.916L283.306 32.1278L280.538 32.1522Z" fill="#E60014"/>
<path d="M289.003 38.0454C288.988 37.7153 289.04 37.3855 289.156 37.0759C289.271 36.7664 289.449 36.4835 289.677 36.2446C289.905 36.0056 290.18 35.8155 290.484 35.6857C290.788 35.5559 291.115 35.4892 291.445 35.4895C292.123 35.4895 292.773 35.7588 293.253 36.2381C293.732 36.7175 294.001 37.3676 294.001 38.0454C294.001 38.7233 293.732 39.3734 293.253 39.8527C292.773 40.332 292.123 40.6013 291.445 40.6013C291.115 40.6017 290.788 40.535 290.484 40.4052C290.18 40.2754 289.905 40.0853 289.677 39.8463C289.449 39.6073 289.271 39.3245 289.156 39.0149C289.04 38.7054 288.988 38.3756 289.003 38.0454ZM290.037 32.1522L289.459 12.3644H293.415L292.837 32.1522H290.037Z" fill="#E60014"/>
<path d="M298.47 38.0454C298.455 37.7153 298.506 37.3855 298.622 37.0759C298.738 36.7664 298.915 36.4835 299.144 36.2446C299.372 36.0056 299.646 35.8155 299.95 35.6857C300.254 35.5559 300.581 35.4892 300.912 35.4895C301.59 35.4895 302.24 35.7588 302.719 36.2381C303.199 36.7175 303.468 37.3676 303.468 38.0454C303.468 38.7233 303.199 39.3734 302.719 39.8527C302.24 40.332 301.59 40.6013 300.912 40.6013C300.581 40.6017 300.254 40.535 299.95 40.4052C299.646 40.2754 299.372 40.0853 299.144 39.8463C298.915 39.6073 298.738 39.3245 298.622 39.0149C298.506 38.7054 298.455 38.3756 298.47 38.0454ZM299.504 32.1522L298.926 12.3644H302.882L302.304 32.1522H299.504Z" fill="#E60014"/>
<defs>
<linearGradient id="paint0_linear_104_4303" x1="69.3831" y1="26.4137" x2="69.3831" y2="151.351" gradientUnits="userSpaceOnUse">
<stop stop-color="#08CCFA"/>
<stop offset="1" stop-color="#8AFBA2"/>
</linearGradient>
<linearGradient id="paint1_linear_104_4303" x1="182.523" y1="26.4137" x2="182.523" y2="151.351" gradientUnits="userSpaceOnUse">
<stop stop-color="#08CCFA"/>
<stop offset="1" stop-color="#8AFBA2"/>
</linearGradient>
<linearGradient id="paint2_linear_104_4303" x1="291.815" y1="26.4137" x2="291.815" y2="151.351" gradientUnits="userSpaceOnUse">
<stop stop-color="#08CCFA"/>
<stop offset="1" stop-color="#8AFBA2"/>
</linearGradient>
<linearGradient id="paint3_linear_104_4303" x1="247.516" y1="116.196" x2="247.516" y2="171.359" gradientUnits="userSpaceOnUse">
<stop stop-color="#08CCFA"/>
<stop offset="1" stop-color="#8AFBA2"/>
</linearGradient>
<linearGradient id="paint4_linear_104_4303" x1="251.967" y1="126.362" x2="328.888" y2="230.959" gradientUnits="userSpaceOnUse">
<stop stop-color="#08CCFA"/>
<stop offset="1" stop-color="#8AFBA2"/>
</linearGradient>
<linearGradient id="paint5_linear_104_4303" x1="280.155" y1="117.36" x2="280.155" y2="175.054" gradientUnits="userSpaceOnUse">
<stop stop-color="#08CCFA"/>
<stop offset="1" stop-color="#8AFBA2"/>
</linearGradient>
</defs>
</svg>
