<svg width="30" height="30" viewBox="0 0 30 30" fill="none" xmlns="http://www.w3.org/2000/svg">
<path d="M26.2788 23.9378H26.8233C26.8233 23.9378 26.8233 23.9378 26.8233 23.9378C26.9013 23.9378 26.9785 23.9532 27.0505 23.983C27.1226 24.0128 27.188 24.0566 27.2432 24.1117C27.2983 24.1668 27.3421 24.2323 27.3719 24.3044L27.2564 24.3522L27.3719 24.3044C27.4017 24.3764 27.4171 24.4536 27.417 24.5316C27.417 24.5316 27.417 24.5316 27.417 24.5316V26.3434C27.417 26.9351 27.1954 27.4179 26.7818 27.75C26.3716 28.0793 25.7858 28.25 25.0728 28.25H4.94131H4.93786L4.93786 28.25C4.26321 28.2314 3.77094 28.1083 3.41549 27.8939C3.05621 27.6771 2.84741 27.3735 2.72958 27.0179C2.61323 26.6667 2.58542 26.2645 2.58314 25.8458C2.58211 25.6574 2.58629 25.463 2.59052 25.2668C2.59101 25.2443 2.59149 25.2217 2.59197 25.1992C2.59663 24.9793 2.60063 24.7569 2.59706 24.5336L2.59703 24.5316C2.59702 24.4536 2.61237 24.3764 2.6422 24.3044C2.67203 24.2323 2.71577 24.1668 2.77091 24.1117C2.82606 24.0566 2.89152 24.0128 2.96357 23.983C3.03561 23.9532 3.11282 23.9378 3.19079 23.9378C3.1908 23.9378 3.19082 23.9378 3.19083 23.9378H3.73527V11.0671V11.0611L3.73542 11.0611C3.75363 10.6835 3.92047 10.3285 4.19952 10.0735C4.47791 9.81914 4.84542 9.68493 5.22216 9.7H14.032H14.0339V9.70001C14.1898 9.70242 14.3385 9.76603 14.4478 9.87711C14.5572 9.98819 14.6185 10.1378 14.6185 10.2937C14.6185 10.4496 14.5572 10.5993 14.4479 10.7104L14.3588 10.6227L14.4479 10.7104C14.3385 10.8214 14.1898 10.8851 14.034 10.8875L14.032 10.8875V10.8875H5.2196C5.12966 10.8875 5.05023 10.9152 4.99614 10.9543C4.94116 10.994 4.92277 11.0363 4.92277 11.0671V23.9378H10.0526H10.0529V24.0628C10.4143 24.0619 10.7723 24.1325 11.1063 24.2705C11.4402 24.4085 11.7436 24.6113 11.9989 24.8671L26.2788 23.9378ZM26.2788 23.9378V11.0671H26.279L26.2787 11.0611C26.2605 10.6835 26.0936 10.3285 25.8146 10.0735C25.5362 9.81914 25.1687 9.68493 24.7919 9.7H22.8399C22.6824 9.7 22.5314 9.76255 22.42 9.8739C22.3087 9.98525 22.2461 10.1363 22.2461 10.2937C22.2461 10.4512 22.3087 10.6022 22.42 10.7136C22.5314 10.8249 22.6824 10.8875 22.8399 10.8875H24.7945C24.8844 10.8875 24.9639 10.9152 25.018 10.9543C25.073 10.994 25.0913 11.0363 25.0913 11.0671V23.9378H19.9615H19.9612V24.0628M26.2788 23.9378L17.9268 24.7788L18.0152 24.8671M19.9612 24.0628C19.5998 24.0619 19.2418 24.1325 18.9078 24.2705C18.5739 24.4085 18.2705 24.6113 18.0152 24.8671M19.9612 24.0628H25.0913H19.9612ZM18.0152 24.8671C17.8468 25.0359 17.6466 25.1697 17.4262 25.2607C17.2059 25.3518 16.9697 25.3983 16.7312 25.3977M18.0152 24.8671L16.7312 25.3977M16.7312 25.3977H13.2829H16.7312ZM10.0532 25.1253L10.0528 25.1253C9.88724 25.1252 8.52295 25.1253 7.09658 25.1253C5.68879 25.1254 4.22052 25.1255 3.78454 25.1254V26.3434C3.78454 26.4461 3.78657 26.6145 3.91424 26.7619C4.0407 26.9079 4.31791 27.0625 4.94128 27.0625H25.0728C25.6962 27.0625 25.9734 26.9079 26.0998 26.7619C26.2275 26.6145 26.2295 26.4461 26.2295 26.3434L26.2295 25.1253C25.8684 25.1254 24.8047 25.1253 23.6526 25.1253C21.9965 25.1253 20.1579 25.1252 19.9613 25.1253H19.9609C19.7389 25.1248 19.5191 25.1681 19.3139 25.2529C19.1088 25.3376 18.9224 25.4621 18.7656 25.6192C18.4987 25.8867 18.1816 26.0987 17.8323 26.2431C17.4831 26.3874 17.1088 26.4612 16.7309 26.4602M10.0532 25.1253L16.7312 26.3352M10.0532 25.1253C10.2752 25.1248 10.495 25.1681 10.7002 25.2529C10.9053 25.3376 11.0916 25.4621 11.2485 25.6192C11.5153 25.8867 11.8325 26.0988 12.1817 26.2431C12.531 26.3875 12.9053 26.4612 13.2832 26.4602M10.0532 25.1253L13.2829 26.3352M16.7309 26.4602L16.7312 26.3352M16.7309 26.4602H16.7312V26.3352M16.7309 26.4602H13.2832M16.7312 26.3352H13.2829M13.2832 26.4602L13.2829 26.3352M13.2832 26.4602H13.2829V26.3352M12.6356 25.1452C12.4305 25.0604 12.2441 24.9359 12.0873 24.7788L17.9268 24.7788C17.77 24.9359 17.5836 25.0604 17.3785 25.1452C17.1734 25.2299 16.9535 25.2733 16.7316 25.2727H16.7312H13.2829H13.2825C13.0606 25.2733 12.8407 25.2299 12.6356 25.1452ZM25.2163 11.0671V23.9378L25.7303 10.1658C25.4756 9.93309 25.1392 9.81057 24.7945 9.825H22.8399C22.7155 9.825 22.5963 9.87438 22.5084 9.96229C22.4205 10.0502 22.3711 10.1694 22.3711 10.2937C22.3711 10.4181 22.4205 10.5373 22.5084 10.6252C22.5963 10.7131 22.7155 10.7625 22.8399 10.7625H24.7945C25.0232 10.7625 25.2163 10.9021 25.2163 11.0671ZM19.9612 25.0003C20.1581 25.0002 21.9966 25.0003 23.6526 25.0003C24.8047 25.0003 25.8684 25.0004 26.2295 25.0003L19.9612 25.0003Z" fill="#263238" stroke="#263238" stroke-width="0.25"/>
<path d="M12.8091 16.2114L12.8091 16.2113L12.8091 15.0722L12.8091 15.0721H12.9341L12.8091 16.2114ZM12.8091 16.2114C12.8095 16.5356 12.9385 16.8463 13.1677 17.0755C13.3969 17.3047 13.7077 17.4336 14.0319 17.434H14.032M12.8091 16.2114L14.032 17.434M14.032 17.434H22.8394H22.8395M14.032 17.434H22.8395M22.8395 17.434C23.1637 17.4336 23.4745 17.3047 23.7037 17.0755C23.9329 16.8463 24.0619 16.5356 24.0623 16.2114V16.2113M22.8395 17.434L24.0623 16.2113M24.0623 16.2113V15.0722M24.0623 16.2113V15.0722M24.0623 15.0722C24.0628 14.4853 23.8784 13.9132 23.5353 13.437C23.1921 12.9609 22.7077 12.605 22.1508 12.4198L24.0623 15.0722ZM17.4801 12.7517L17.4801 12.752L17.4877 12.7489C18.1013 12.4987 18.8481 12.5992 19.6177 12.8198C20.0001 12.9294 20.3814 13.0665 20.7479 13.1992L20.7865 13.2131C21.1361 13.3398 21.4734 13.462 21.7781 13.5474C22.0972 13.6541 22.3748 13.8584 22.5716 14.1315C22.769 14.4054 22.8751 14.7344 22.8748 15.072V15.0721V16.2111C22.8748 16.2205 22.8711 16.2295 22.8644 16.2361C22.8578 16.2428 22.8488 16.2465 22.8394 16.2465H14.032C14.0226 16.2465 14.0136 16.2428 14.007 16.2361C14.0003 16.2295 13.9966 16.2205 13.9966 16.2111C13.9966 16.2111 13.9966 16.2111 13.9966 16.2111L13.9966 15.0721V15.072C13.9963 14.7344 14.1024 14.4054 14.2998 14.1315C14.4972 13.8576 14.7758 13.6529 15.0962 13.5464L15.0963 13.5464L17.4801 12.7517ZM22.1507 12.4198L20.4764 11.8617C20.939 11.4813 21.2874 10.9781 21.48 10.4076C21.6984 9.76076 21.705 9.06116 21.499 8.41026C21.293 7.75937 20.885 7.19102 20.3342 6.78762C19.7834 6.38422 19.1184 6.16675 18.4357 6.16675C17.753 6.16674 17.088 6.3842 16.5372 6.78759C15.9864 7.19098 15.5784 7.75933 15.3724 8.41022C15.1664 9.06111 15.173 9.7607 15.3914 10.4076C15.584 10.978 15.9324 11.4813 16.395 11.8617L14.7206 12.4198H22.1507ZM18.4356 11.4092C15.7576 11.3203 15.7581 7.4429 18.4357 7.35431C21.1134 7.44335 21.1129 11.3206 18.4356 11.4092Z" fill="#263238" stroke="#263238" stroke-width="0.25"/>
<mask id="path-3-outside-1_77_1000" maskUnits="userSpaceOnUse" x="4.5668" y="0.875" width="10" height="9" fill="black">
<rect fill="white" x="4.5668" y="0.875" width="10" height="9"/>
<path d="M6.61897 8.06419H10.0925L10.9819 8.8266C11.0504 8.88362 11.1336 8.92009 11.222 8.93179C11.3103 8.94349 11.4001 8.92993 11.4811 8.89269C11.5621 8.85546 11.6308 8.79606 11.6794 8.72137C11.728 8.64668 11.7545 8.55976 11.7558 8.47066V8.06419H12.4541C12.7331 8.06385 13.0006 7.95286 13.1979 7.75558C13.3952 7.55829 13.5061 7.29081 13.5065 7.0118V2.92717C13.5061 2.64819 13.3951 2.38073 13.1978 2.18348C13.0005 1.98623 12.7331 1.87529 12.4541 1.875H6.61897C6.34001 1.87529 6.07256 1.98624 5.8753 2.1835C5.67804 2.38075 5.5671 2.64821 5.5668 2.92717V7.0118C5.56709 7.29078 5.67803 7.55826 5.87528 7.75555C6.07254 7.95284 6.33999 8.06384 6.61897 8.06419ZM6.5043 2.92716C6.50436 2.89677 6.51646 2.86763 6.53795 2.84614C6.55945 2.82465 6.58858 2.81255 6.61897 2.8125H12.4541C12.4845 2.81251 12.5137 2.82458 12.5352 2.84608C12.5568 2.86758 12.5689 2.89674 12.569 2.92717V7.0118C12.569 7.04226 12.5569 7.07148 12.5353 7.09302C12.5138 7.11456 12.4846 7.12667 12.4541 7.12669H11.287C11.1851 7.12669 11.086 7.15988 11.0046 7.22125C10.9233 7.28262 10.8641 7.36882 10.8361 7.46681C10.6832 7.3423 10.4828 7.11047 10.266 7.12669H6.61897C6.58854 7.12663 6.55938 7.11449 6.53788 7.09295C6.51639 7.07141 6.50431 7.04223 6.5043 7.0118V2.92716Z"/>
</mask>
<path d="M6.61897 8.06419H10.0925L10.9819 8.8266C11.0504 8.88362 11.1336 8.92009 11.222 8.93179C11.3103 8.94349 11.4001 8.92993 11.4811 8.89269C11.5621 8.85546 11.6308 8.79606 11.6794 8.72137C11.728 8.64668 11.7545 8.55976 11.7558 8.47066V8.06419H12.4541C12.7331 8.06385 13.0006 7.95286 13.1979 7.75558C13.3952 7.55829 13.5061 7.29081 13.5065 7.0118V2.92717C13.5061 2.64819 13.3951 2.38073 13.1978 2.18348C13.0005 1.98623 12.7331 1.87529 12.4541 1.875H6.61897C6.34001 1.87529 6.07256 1.98624 5.8753 2.1835C5.67804 2.38075 5.5671 2.64821 5.5668 2.92717V7.0118C5.56709 7.29078 5.67803 7.55826 5.87528 7.75555C6.07254 7.95284 6.33999 8.06384 6.61897 8.06419ZM6.5043 2.92716C6.50436 2.89677 6.51646 2.86763 6.53795 2.84614C6.55945 2.82465 6.58858 2.81255 6.61897 2.8125H12.4541C12.4845 2.81251 12.5137 2.82458 12.5352 2.84608C12.5568 2.86758 12.5689 2.89674 12.569 2.92717V7.0118C12.569 7.04226 12.5569 7.07148 12.5353 7.09302C12.5138 7.11456 12.4846 7.12667 12.4541 7.12669H11.287C11.1851 7.12669 11.086 7.15988 11.0046 7.22125C10.9233 7.28262 10.8641 7.36882 10.8361 7.46681C10.6832 7.3423 10.4828 7.11047 10.266 7.12669H6.61897C6.58854 7.12663 6.55938 7.11449 6.53788 7.09295C6.51639 7.07141 6.50431 7.04223 6.5043 7.0118V2.92716Z" fill="#263238"/>
<path d="M6.61897 8.06419L6.61866 8.31419H6.61897V8.06419ZM10.0925 8.06419L10.2552 7.87438L10.185 7.81419H10.0925V8.06419ZM10.9819 8.8266L10.8192 9.01643L10.8219 9.01871L10.9819 8.8266ZM11.7558 8.47066L12.0058 8.47421V8.47066H11.7558ZM11.7558 8.06419V7.81419H11.5058V8.06419H11.7558ZM12.4541 8.06419V8.31419L12.4544 8.31419L12.4541 8.06419ZM13.5065 7.0118L13.7565 7.0121V7.0118H13.5065ZM13.5065 2.92717H13.7565V2.92686L13.5065 2.92717ZM12.4541 1.875L12.4543 1.625H12.4541V1.875ZM6.61897 1.875V1.625L6.61871 1.625L6.61897 1.875ZM5.5668 2.92717L5.3168 2.92691V2.92717H5.5668ZM5.5668 7.0118H5.3168L5.3168 7.01206L5.5668 7.0118ZM6.5043 2.92716L6.2543 2.92669V2.92716H6.5043ZM6.61897 2.8125V2.5625L6.61852 2.5625L6.61897 2.8125ZM12.4541 2.8125L12.4541 2.5625H12.4541V2.8125ZM12.569 2.92717H12.819L12.819 2.92662L12.569 2.92717ZM12.569 7.0118L12.819 7.01196V7.0118H12.569ZM12.4541 7.12669V7.37669H12.4542L12.4541 7.12669ZM11.287 7.12669L11.287 7.37669H11.287V7.12669ZM10.8361 7.46681L10.6783 7.66069L10.9724 7.90009L11.0765 7.53548L10.8361 7.46681ZM10.266 7.12669V7.37669H10.2753L10.2846 7.376L10.266 7.12669ZM6.61897 7.12669L6.61842 7.37669H6.61897V7.12669ZM6.5043 7.0118H6.2543V7.01186L6.5043 7.0118ZM6.61897 8.31419H10.0925V7.81419H6.61897V8.31419ZM9.92978 8.254L10.8192 9.01641L11.1446 8.63679L10.2552 7.87438L9.92978 8.254ZM10.8219 9.01871C10.9267 9.10594 11.054 9.16173 11.1891 9.17963L11.2548 8.68395C11.2132 8.67845 11.1741 8.6613 11.1419 8.63449L10.8219 9.01871ZM11.1891 9.17963C11.3243 9.19752 11.4617 9.17678 11.5856 9.11982L11.3766 8.66557C11.3386 8.68308 11.2963 8.68945 11.2548 8.68395L11.1891 9.17963ZM11.5856 9.11982C11.7094 9.06286 11.8146 8.97199 11.889 8.85774L11.4699 8.58501C11.447 8.62013 11.4147 8.64806 11.3766 8.66557L11.5856 9.11982ZM11.889 8.85774C11.9633 8.74349 12.0038 8.61051 12.0057 8.47421L11.5058 8.46711C11.5052 8.50901 11.4928 8.54988 11.4699 8.58501L11.889 8.85774ZM12.0058 8.47066V8.06419H11.5058V8.47066H12.0058ZM11.7558 8.31419H12.4541V7.81419H11.7558V8.31419ZM12.4544 8.31419C12.7996 8.31377 13.1305 8.17645 13.3746 7.93235L13.0211 7.5788C12.8706 7.72928 12.6666 7.81393 12.4538 7.81419L12.4544 8.31419ZM13.3746 7.93235C13.6187 7.68826 13.7561 7.35731 13.7565 7.0121L13.2565 7.01149C13.2562 7.2243 13.1716 7.42832 13.0211 7.5788L13.3746 7.93235ZM13.7565 7.0118V2.92717H13.2565V7.0118H13.7565ZM13.7565 2.92686C13.7561 2.58167 13.6187 2.25074 13.3746 2.00668L13.0211 2.36028C13.1716 2.51072 13.2562 2.7147 13.2565 2.92748L13.7565 2.92686ZM13.3746 2.00668C13.1305 1.76262 12.7995 1.62536 12.4543 1.625L12.4538 2.125C12.6666 2.12522 12.8706 2.20983 13.0211 2.36028L13.3746 2.00668ZM12.4541 1.625H6.61897V2.125H12.4541V1.625ZM6.61871 1.625C6.27353 1.62536 5.9426 1.76265 5.69852 2.00672L6.05208 2.36028C6.20251 2.20984 6.40649 2.12522 6.61924 2.125L6.61871 1.625ZM5.69852 2.00672C5.45445 2.2508 5.31717 2.58173 5.3168 2.92691L5.8168 2.92743C5.81703 2.71468 5.90164 2.51071 6.05208 2.36028L5.69852 2.00672ZM5.3168 2.92717V7.0118H5.8168V2.92717H5.3168ZM5.3168 7.01206C5.31716 7.35725 5.45443 7.6882 5.69849 7.93231L6.05208 7.57879C5.90164 7.42832 5.81703 7.22432 5.8168 7.01154L5.3168 7.01206ZM5.69849 7.93231C5.94255 8.17642 6.27347 8.31376 6.61866 8.31419L6.61929 7.81419C6.40651 7.81392 6.20252 7.72927 6.05208 7.57879L5.69849 7.93231ZM6.7543 2.92763C6.75424 2.96338 6.74 2.99765 6.71472 3.02293L6.36118 2.66936C6.29292 2.73762 6.25448 2.83015 6.2543 2.92669L6.7543 2.92763ZM6.71472 3.02293C6.68944 3.04821 6.65517 3.06244 6.61942 3.0625L6.61852 2.5625C6.52198 2.56267 6.42945 2.6011 6.36118 2.66936L6.71472 3.02293ZM6.61897 3.0625H12.4541V2.5625H6.61897V3.0625ZM12.454 3.0625C12.4183 3.06249 12.384 3.0483 12.3586 3.02303L12.7118 2.66913C12.6434 2.60087 12.5508 2.56252 12.4541 2.5625L12.454 3.0625ZM12.3586 3.02303C12.3333 2.99777 12.3191 2.96349 12.319 2.92772L12.819 2.92662C12.8188 2.82999 12.7802 2.73739 12.7118 2.66913L12.3586 3.02303ZM12.319 2.92717V7.0118H12.819V2.92717H12.319ZM12.319 7.01163C12.319 6.97585 12.3332 6.94154 12.3585 6.91624L12.7121 7.2698C12.7805 7.20141 12.8189 7.10867 12.819 7.01196L12.319 7.01163ZM12.3585 6.91624C12.3838 6.89094 12.4181 6.87671 12.4539 6.87669L12.4542 7.37669C12.551 7.37663 12.6437 7.33819 12.7121 7.2698L12.3585 6.91624ZM12.4541 6.87669H11.287V7.37669H12.4541V6.87669ZM11.287 6.87669C11.1308 6.87669 10.9788 6.92758 10.8541 7.02167L11.1552 7.42084C11.1932 7.39219 11.2394 7.37669 11.287 7.37669L11.287 6.87669ZM10.8541 7.02167C10.7294 7.11575 10.6387 7.24792 10.5957 7.39814L11.0765 7.53548C11.0896 7.48973 11.1172 7.44949 11.1552 7.42084L10.8541 7.02167ZM10.994 7.27294C10.9615 7.24654 10.9274 7.21509 10.8795 7.17234C10.8349 7.13256 10.7817 7.08609 10.724 7.04323C10.6157 6.96286 10.449 6.8623 10.2473 6.87739L10.2846 7.376C10.2998 7.37487 10.3416 7.38211 10.426 7.44472C10.4646 7.47336 10.5037 7.50718 10.5465 7.54537C10.586 7.58061 10.6342 7.62482 10.6783 7.66069L10.994 7.27294ZM10.266 6.87669H6.61897V7.37669H10.266V6.87669ZM6.61952 6.87669C6.65529 6.87677 6.68957 6.89103 6.71483 6.91635L6.36093 7.26956C6.42919 7.33795 6.52179 7.37648 6.61842 7.37669L6.61952 6.87669ZM6.71483 6.91635C6.7401 6.94166 6.75429 6.97597 6.7543 7.01174L6.2543 7.01186C6.25433 7.10849 6.29267 7.20116 6.36093 7.26956L6.71483 6.91635ZM6.7543 7.0118V2.92716H6.2543V7.0118H6.7543Z" fill="#263238" mask="url(#path-3-outside-1_77_1000)"/>
<path d="M7.79543 5.43823C7.91856 5.4358 8.03578 5.38501 8.12177 5.29686C8.20776 5.2087 8.2556 5.09025 8.25497 4.9671C8.25433 4.84395 8.20526 4.726 8.11837 4.63873C8.03148 4.55147 7.91374 4.5019 7.7906 4.50073C7.66747 4.50317 7.55025 4.55395 7.46426 4.64211C7.37827 4.73027 7.33043 4.84872 7.33106 4.97187C7.3317 5.09501 7.38076 5.21297 7.46766 5.30023C7.55455 5.3875 7.67229 5.43707 7.79543 5.43823Z" fill="#263238"/>
<path d="M9.54592 5.43823C9.66904 5.4358 9.78627 5.38502 9.87225 5.29686C9.95824 5.2087 10.0061 5.09025 10.0055 4.9671C10.0048 4.84395 9.95575 4.726 9.86886 4.63874C9.78197 4.55147 9.66423 4.5019 9.54108 4.50073C9.41796 4.50317 9.30074 4.55395 9.21475 4.64211C9.12876 4.73026 9.08091 4.84872 9.08155 4.97186C9.08218 5.09501 9.13125 5.21296 9.21814 5.30023C9.30503 5.3875 9.42277 5.43707 9.54592 5.43823Z" fill="#263238"/>
<path d="M11.2964 5.43823C11.4195 5.4358 11.5368 5.38501 11.6227 5.29686C11.7087 5.2087 11.7566 5.09025 11.7559 4.9671C11.7553 4.84395 11.7062 4.726 11.6193 4.63873C11.5325 4.55147 11.4147 4.5019 11.2916 4.50073C11.1684 4.50317 11.0512 4.55395 10.9652 4.64211C10.8792 4.73027 10.8314 4.84872 10.832 4.97187C10.8327 5.09501 10.8817 5.21297 10.9686 5.30023C11.0555 5.3875 11.1733 5.43707 11.2964 5.43823Z" fill="#263238"/>
</svg>
